<?xml version="1.0" encoding="utf-8"?>
<!-- Generator: Adobe Illustrator 23.0.2, SVG Export Plug-In . SVG Version: 6.00 Build 0)  -->
<svg version="1.1" id="Layer_1" xmlns="http://www.w3.org/2000/svg" xmlns:xlink="http://www.w3.org/1999/xlink" x="0px" y="0px"
	 viewBox="0 0 1000 340" style="enable-background:new 0 0 1000 340;" xml:space="preserve">
<style type="text/css">
	.st0{fill:#41ABD1;}
	.st1{fill:#72CDE0;}
	.st2{fill:#484577;}
	.st3{fill:#517DB5;}
	.st4{fill:#33BBED;}
</style>
<g>
	<g>
		<g>
			<path class="st0" d="M449.4,289.9h4.4l-0.5,5.1h0.3c3.6-3.3,7.7-5.9,11.2-5.9c5.4,0,7.4,3,7.9,6.7c4.4-4.2,8.6-6.7,12.1-6.7
				c5.7,0,8,3.3,8,8.5c0,1.6-0.2,2.8-0.6,4.7l-4.4,21.7h-5.4l4.2-21c0.4-1.8,0.6-2.8,0.6-4c0-3.5-1.6-5.2-5-5.2
				c-1.9,0-5.5,1.9-9.6,6.1l-4.8,24.1h-5.4l4.3-21c0.4-1.8,0.6-2.8,0.6-4c0-3.5-1.6-5.2-4.9-5.2c-2,0-5.6,1.9-9.6,6.1L448,324h-5.4
				L449.4,289.9z"/>
			<path class="st0" d="M499.3,312.4c0-13.1,9-23.4,18.4-23.4c3.7,0,6.7,2,8.3,5.1h0.2l1.4-4.3h4.4l-6.8,34.1h-4.4l0.5-5.1H521
				c-3.4,3.5-7.6,5.9-11.9,5.9C503.1,324.8,499.3,320.4,499.3,312.4z M521.8,313.8l3.1-15.2c-2-3.6-4.4-5.1-7-5.1
				c-6.8,0-13.1,8.7-13.1,18.1c0,5.9,2.4,8.6,6.2,8.6C514.7,320.3,518.5,318.2,521.8,313.8z"/>
			<path class="st0" d="M546.4,274h5.4l-6.8,33.9h0.2l17.5-18h6.1l-13.6,14.2l8.2,19.8H558l-6.6-16.6l-7.9,8l-1.8,8.6h-5.4
				L546.4,274z"/>
			<path class="st0" d="M587.3,289c7.7,0,10.6,5.3,10.6,12.3c0,2.7-0.8,5.4-1.3,6.6h-22.2c-1.2,8.8,3.3,12.5,9.3,12.5
				c2.7,0,5.5-1.4,7.7-3l2.1,3.6c-2.7,2-6.6,3.6-11,3.6c-8,0-13.4-5.1-13.4-14.3C569.1,297.7,578.4,289,587.3,289z M592.9,304.4
				c0.2-1.1,0.4-2.2,0.4-3.5c0-3.9-1.7-7.6-6.6-7.6c-5,0-9.9,4.4-11.6,11.1H592.9z"/>
			<path class="st0" d="M616.8,320.4c0-0.8,0.1-1.7,0.4-2.9l8.7-43.4h5.4l-8.7,43.7c-0.1,0.7-0.1,1.1-0.1,1.4c0,0.8,0.4,1.3,1.1,1.3
				c0.3,0,0.5,0,1.2-0.2l0,4.1c-0.9,0.3-1.9,0.6-3.4,0.6C618.4,324.8,616.8,323.2,616.8,320.4z"/>
			<path class="st0" d="M640.2,289.9h5.4l-6.8,34.1h-5.4L640.2,289.9z M641.3,279.7c0-2.3,1.9-4.1,4.1-4.1c1.8,0,3.4,1.2,3.4,3.2
				c0,2.3-1.9,4-4.1,4C642.9,282.8,641.3,281.7,641.3,279.7z"/>
			<path class="st0" d="M651.9,289.9h5.4l2.5,19.7c0.4,3.3,0.7,6.9,1,10.2h0.3c1.6-3.4,3.3-6.8,5-10.2l10.1-19.7h5.4L663.4,324h-6.4
				L651.9,289.9z"/>
			<path class="st0" d="M688.3,289.9h5.4l-6.8,34.1h-5.4L688.3,289.9z M689.4,279.7c0-2.3,1.9-4.1,4.1-4.1c1.8,0,3.4,1.2,3.4,3.2
				c0,2.3-1.9,4-4.1,4C691,282.8,689.4,281.7,689.4,279.7z"/>
			<path class="st0" d="M704.9,289.9h4.4l-0.5,5.1h0.3c3.9-3.3,7.7-5.9,11.9-5.9c5.8,0,8.1,3.3,8.1,8.5c0,1.6-0.2,2.8-0.6,4.7
				l-4.4,21.7h-5.4l4.2-21c0.4-1.8,0.6-2.8,0.6-4c0-3.5-1.6-5.2-5.1-5.2c-2.7,0-6,1.9-10.3,6.1l-4.8,24.1h-5.4L704.9,289.9z"/>
			<path class="st0" d="M732.6,335l2.6-3.7c2.6,2.2,5.8,4,9.6,4c5.8,0,9.3-3.9,10.8-10.2l1.7-7.3c-3.6,3.5-7.5,5.7-11.9,5.7
				c-5.8,0-9.9-4.1-9.9-12c0-12.5,8.8-22.6,18-22.6c3.6,0,6.6,2,8.2,5.1h0.2l1.4-4.3h4.4l-7.2,35.7c-1.9,9-7.4,14.1-16,14.1
				C740,339.7,736,337.7,732.6,335z M757.7,313.1l3-14.5c-2-3.6-4.3-5.1-6.9-5.1c-6.6,0-12.7,8.4-12.7,17.3c0,5.6,2.3,8.3,6.1,8.3
				C750.4,319.1,754.5,317.1,757.7,313.1z"/>
			<path class="st0" d="M783.3,318.4l3.4-2.7c2.1,2.9,5.2,5,8.8,5c3.9,0,7.2-2.6,7.2-5.7c0-2.4-1.5-3.9-6.3-6.5
				c-5.3-2.8-7.8-5.5-7.8-9.3c0-6,5.3-10.2,11.7-10.2c4.2,0,7.6,1.9,10.1,4.5l-3.1,3c-1.8-1.9-4-3.3-7.1-3.3c-3.7,0-6.5,2.5-6.5,5.4
				c0,2.8,2.9,4.3,6.1,6c6.1,3.3,8,6,8,9.6c0,6.4-5.4,10.5-12.8,10.5C790.4,324.8,785.6,321.9,783.3,318.4z"/>
			<path class="st0" d="M820.8,289.9h5.4l-6.8,34.1h-5.4L820.8,289.9z M821.9,279.7c0-2.3,1.9-4.1,4.1-4.1c1.8,0,3.4,1.2,3.4,3.2
				c0,2.3-1.9,4-4.1,4C823.5,282.8,821.9,281.7,821.9,279.7z"/>
			<path class="st0" d="M837.4,289.9h4.4l-0.5,5.1h0.3c3.6-3.3,7.7-5.9,11.2-5.9c5.4,0,7.4,3,7.9,6.7c4.4-4.2,8.6-6.7,12.1-6.7
				c5.7,0,8,3.3,8,8.5c0,1.6-0.2,2.8-0.6,4.7l-4.4,21.7h-5.4l4.2-21c0.4-1.8,0.6-2.8,0.6-4c0-3.5-1.6-5.2-5-5.2
				c-1.9,0-5.5,1.9-9.6,6.1l-4.8,24.1h-5.4l4.2-21c0.4-1.8,0.6-2.8,0.6-4c0-3.5-1.6-5.2-4.9-5.2c-2,0-5.6,1.9-9.6,6.1L836,324h-5.4
				L837.4,289.9z"/>
			<path class="st0" d="M891.3,327.2l-2.1,11.2h-5.4l9.7-48.4h4.4l-0.4,4.5h0.2c3.4-2.9,7.5-5.3,11.8-5.3c6,0,9.8,4.4,9.8,12.4
				c0,13.1-9,23.4-18.4,23.4c-3.6,0-6.4-2-8.2-4.9h-0.1L891.3,327.2z M897.1,299.2l-3.3,16.3c1.9,3.5,4.3,4.9,6.9,4.9
				c6.8,0,13.1-8.7,13.1-18.1c0-5.8-2.4-8.6-6.2-8.6C904.4,293.5,900.3,295.6,897.1,299.2z"/>
			<path class="st0" d="M925.2,320.4c0-0.8,0.1-1.7,0.4-2.9l8.7-43.4h5.4l-8.7,43.7c-0.1,0.7-0.1,1.1-0.1,1.4c0,0.8,0.4,1.3,1.1,1.3
				c0.3,0,0.5,0,1.2-0.2l0,4.1c-0.9,0.3-1.9,0.6-3.4,0.6C926.7,324.8,925.2,323.2,925.2,320.4z"/>
			<path class="st0" d="M960.4,289c7.7,0,10.6,5.3,10.6,12.3c0,2.7-0.8,5.4-1.3,6.6h-22.2c-1.2,8.8,3.3,12.5,9.3,12.5
				c2.7,0,5.5-1.4,7.7-3l2.1,3.6c-2.7,2-6.6,3.6-11,3.6c-8,0-13.4-5.1-13.4-14.3C942.2,297.7,951.5,289,960.4,289z M966,304.4
				c0.2-1.1,0.4-2.2,0.4-3.5c0-3.9-1.7-7.6-6.6-7.6c-5,0-9.9,4.4-11.6,11.1H966z"/>
			<path class="st0" d="M982.3,289.9h4.4l-0.8,6.5h0.3c2.8-4.1,6.4-7.4,10.6-7.4c1.3,0,2.3,0.2,3.3,0.6l-1.9,4.8
				c-0.7-0.4-1.7-0.6-2.9-0.6c-3.4,0-7.2,3-10.1,8.6l-4.2,21.5h-5.4L982.3,289.9z"/>
		</g>
	</g>
	<g>
		<path class="st1" d="M23.5,36.6c-0.1,0-0.3,0-0.4,0.1c-5.3,0.6-10.2,2.8-14.1,6.2c0,0-0.1,0.1-0.1,0.1c-0.8,0.7-1.6,1.5-2.3,2.3
			c0,0-0.1,0.1-0.1,0.1C3,49.3,0.7,54.3,0.2,59.8l0,0.2c0,0.2,0,0.3-0.1,0.5C-0.5,67.8,2,74.7,6.6,79.9c0.4,0.4,0.8,0.8,1.2,1.2
			l1.2,1.2l22.3,22.1c-1.7,2.9-2.8,6.3-3.1,9.9c-1,12.8,8.5,24,21.3,25c5,0.4,9.8-0.8,13.8-3.2c2.8-1.7,5.2-3.9,7.1-6.6
			c2.3-3.3,3.8-7.2,4.2-11.5c1-12.8-8.5-24-21.3-25c-5.7-0.5-11.1,1.2-15.4,4.2l-8.8-8.8l0,0L14.7,74.4l-0.3-0.3
			c-0.3-0.3-0.6-0.6-0.9-0.9c0,0,0,0,0,0c-3-3.3-4.7-7.8-4.4-12.6c0.3-3.7,1.7-6.9,4-9.5c0,0,0,0,0.1-0.1c0.4-0.5,0.9-1,1.5-1.5
			c0,0,0-0.1,0.1-0.1c3.2-2.8,7.5-4.4,12.1-4c3.1,0.3,6,1.4,8.4,3.1c1.3,0.9,2.4,2.1,3.3,3.3l13.7,13.6l44.2,43.9l9.2,9.1l1.7,1.7
			c1,1.3,1.5,3,1.3,4.8c-0.1,1.2-0.5,2.3-1.1,3.2l-2.3,2.3l-8.8,8.8l-8.2,8.2l-6.8,6.9l-68.1,68.3L9.9,226
			c-3.5,4.2-5.8,9.4-6.3,15.2c-0.1,1.6-0.1,3.2,0,4.7c1.2,12.9,11.5,23.5,24.8,24.6l0.1,0c7.8,0.6,15.1-2.1,20.4-6.9l2.2-2.2
			c0,0,0,0,0,0l61.4-61.6c3.2,2.1,6.9,3.4,10.9,3.8c12.8,1,24-8.5,25-21.2c0.4-5.4-1-10.6-3.8-14.8c-1.8-2.7-4.2-5-6.9-6.7
			c-3.1-1.9-6.7-3.2-10.5-3.5c-8.1-0.7-15.6,2.9-20.3,8.9c-2.1,2.7-3.6,5.8-4.3,9.3c-0.2,1-0.4,2-0.4,3c-0.4,5.3,0.9,10.2,3.6,14.4
			l-48,48.1l-13.6,13.6c0,0,0,0,0,0c-0.5,0.6-1.1,1.1-1.7,1.7c0,0,0,0-0.1,0.1c-3.4,3-8,4.6-12.9,4.2c-9.7-0.8-16.8-9.2-16.1-18.9
			c0.3-3.9,1.9-7.3,4.3-10.1c0,0,0-0.1,0.1-0.1c0.5-0.6,1-1.1,1.6-1.6c0,0,0-0.1,0.1-0.1l13.6-13.6L88.2,161l6.8-6.8l17.7-17.7
			l1.9-1.9c0,0,0,0,0,0c1.1-1.3,2-2.8,2.6-4.4c0.6-1.4,1-3,1.1-4.6c0.2-2.6-0.2-5-1.1-7.3c-0.6-1.6-1.5-3.1-2.6-4.4l-2-2L46.7,46.4
			L42.2,42c-3.9-3-8.7-5-14-5.4C26.7,36.4,25.1,36.4,23.5,36.6z M67,117.4c-0.2,2.5-1,4.8-2.2,6.8c-1.7,2.8-4.2,5.1-7.2,6.4
			c-2.3,1-5,1.5-7.7,1.3c-8.7-0.7-15.2-8.3-14.5-17c0.1-1.8,0.6-3.5,1.3-5c1.3-3.1,3.6-5.6,6.4-7.3c2.7-1.6,6-2.5,9.4-2.2
			C61.2,101.1,67.7,108.7,67,117.4z M118.1,194.3c-2.9-1.5-5.3-4-6.8-6.9c-0.8-1.5-1.3-3.2-1.5-5c-0.1-1.1-0.2-2.2-0.1-3.4
			c0.2-2.8,1.2-5.5,2.7-7.7c3.1-4.5,8.5-7.3,14.4-6.8c2,0.2,4,0.7,5.7,1.6c3,1.5,5.4,3.8,7,6.7c1.4,2.6,2.1,5.6,1.8,8.8
			c-0.7,8.7-8.4,15.2-17.1,14.5C122,195.9,119.9,195.3,118.1,194.3z"/>
		<path class="st2" d="M300.2,23.6c0-0.1,0-0.3-0.1-0.4c-0.6-5.3-2.8-10.2-6.2-14.1c0,0-0.1-0.1-0.1-0.1c-0.7-0.8-1.5-1.6-2.3-2.3
			c-0.1,0-0.1-0.1-0.1-0.1c-3.9-3.4-8.8-5.7-14.4-6.3l-0.2,0c-0.2,0-0.3,0-0.5-0.1c-7.4-0.6-14.3,1.9-19.5,6.5
			c-0.4,0.4-0.8,0.8-1.2,1.2L254.4,9l-22.1,22.2c-2.9-1.7-6.3-2.8-9.9-3.1c-12.8-1-24,8.5-25,21.2c-0.4,5,0.8,9.8,3.2,13.7
			c1.7,2.8,3.9,5.2,6.6,7.1c3.3,2.3,7.2,3.8,11.5,4.2c12.8,1,24-8.5,25-21.2c0.5-5.7-1.2-11-4.2-15.3l8.8-8.8l0,0l14.1-14.2l0.3-0.3
			c0.3-0.3,0.6-0.6,0.9-0.9c0,0,0,0,0,0c3.3-3,7.8-4.7,12.6-4.3c3.7,0.3,6.9,1.7,9.5,4c0,0,0.1,0,0.1,0.1c0.5,0.4,1,0.9,1.5,1.5
			c0,0,0.1,0,0.1,0.1c2.8,3.2,4.4,7.5,4,12c-0.3,3.1-1.4,6-3.1,8.4c-1,1.3-2.1,2.4-3.3,3.3l-13.6,13.6l-43.9,44.1l-9.1,9.2l-1.7,1.7
			c-1.3,1-3,1.5-4.8,1.3c-1.2-0.1-2.3-0.5-3.2-1.1l-2.3-2.3l-8.8-8.8l-8.2-8.2l-6.9-6.8l-68.5-68l-3.4-3.4
			c-4.2-3.5-9.4-5.8-15.3-6.2c-1.6-0.1-3.2-0.1-4.7,0C77.6,4.9,67,15.2,65.8,28.6l0,0.1c-0.6,7.8,2.1,15,6.9,20.4l2.2,2.2
			c0,0,0,0,0,0l61.7,61.3c-2.1,3.2-3.4,6.9-3.8,10.9c-1,12.8,8.5,24,21.3,25c5.4,0.4,10.6-1,14.8-3.8c2.7-1.8,5-4.2,6.8-6.9
			c1.9-3.1,3.2-6.6,3.5-10.5c0.7-8.1-3-15.6-8.9-20.2c-2.7-2.1-5.9-3.6-9.3-4.3c-1-0.2-2-0.4-3-0.4c-5.3-0.4-10.3,0.9-14.4,3.6
			L95.4,57.9L81.8,44.4c0,0,0,0,0,0c-0.6-0.5-1.1-1.1-1.7-1.6c0,0,0,0-0.1-0.1c-3-3.4-4.6-8-4.3-12.9c0.8-9.6,9.2-16.8,18.9-16
			c3.9,0.3,7.4,1.9,10.1,4.2c0,0,0.1,0,0.1,0.1c0.6,0.5,1.1,1,1.6,1.6c0,0,0.1,0,0.1,0.1l13.7,13.6l55.4,55l6.9,6.8l17.8,17.6
			l1.9,1.9c0,0,0,0,0,0c1.3,1.1,2.8,2,4.4,2.6c1.4,0.6,3,1,4.6,1.1c2.6,0.2,5-0.2,7.3-1.1c1.6-0.6,3.1-1.5,4.4-2.6l2-2l65.6-65.8
			l4.4-4.5c3-3.9,5-8.7,5.4-13.9C300.4,26.7,300.4,25.2,300.2,23.6z M219.2,67c-2.5-0.2-4.8-1-6.8-2.1c-2.9-1.7-5.1-4.2-6.4-7.2
			c-1-2.3-1.5-4.9-1.3-7.7c0.7-8.7,8.4-15.2,17.1-14.5c1.8,0.1,3.5,0.6,5,1.3c3.1,1.3,5.6,3.6,7.3,6.4c1.6,2.7,2.5,6,2.2,9.4
			C235.6,61.2,227.9,67.7,219.2,67z M142.2,118c1.6-2.9,4-5.3,6.9-6.7c1.5-0.8,3.2-1.3,5-1.5c1.1-0.1,2.2-0.2,3.4-0.1
			c2.9,0.2,5.5,1.2,7.7,2.7c4.5,3.1,7.3,8.5,6.9,14.3c-0.2,2-0.7,4-1.6,5.7c-1.5,3-3.8,5.4-6.7,6.9c-2.6,1.4-5.6,2.1-8.8,1.8
			c-8.7-0.7-15.2-8.3-14.5-17C140.5,121.9,141.2,119.8,142.2,118z"/>
		<path class="st0" d="M36.1,316.6c0,0.1,0,0.3,0.1,0.4c0.6,5.3,2.8,10.2,6.2,14.1c0,0,0.1,0.1,0.1,0.1c0.7,0.8,1.5,1.6,2.3,2.3
			c0.1,0,0.1,0.1,0.1,0.1c3.9,3.4,8.8,5.7,14.4,6.3l0.2,0c0.2,0,0.3,0,0.5,0.1c7.4,0.6,14.3-1.9,19.5-6.5c0.4-0.4,0.8-0.8,1.2-1.2
			l1.2-1.2L104,309c2.9,1.7,6.3,2.8,9.9,3.1c12.8,1,24-8.5,25-21.2c0.4-5-0.8-9.8-3.2-13.7c-1.7-2.8-3.9-5.2-6.6-7.1
			c-3.3-2.3-7.2-3.8-11.5-4.2c-12.8-1-24,8.5-25,21.2c-0.5,5.7,1.2,11,4.2,15.3l-8.8,8.8l0,0l-14.1,14.2l-0.3,0.3
			c-0.3,0.3-0.6,0.6-0.9,0.9c0,0,0,0,0,0c-3.3,3-7.8,4.7-12.6,4.3c-3.7-0.3-6.9-1.7-9.5-4c0,0-0.1,0-0.1-0.1c-0.5-0.4-1-0.9-1.5-1.5
			c0,0-0.1,0-0.1-0.1c-2.8-3.2-4.4-7.5-4-12c0.3-3.1,1.4-6,3.1-8.4c1-1.3,2.1-2.4,3.3-3.3L65,288.1l43.9-44.1l9.1-9.2l1.7-1.7
			c1.3-1,3-1.5,4.8-1.3c1.2,0.1,2.3,0.5,3.2,1.1l2.3,2.3l8.8,8.8l8.2,8.2l6.9,6.8l68.5,68l3.4,3.4c4.2,3.5,9.4,5.8,15.3,6.2
			c1.6,0.1,3.2,0.1,4.7,0c12.9-1.2,23.5-11.5,24.6-24.8l0-0.1c0.6-7.8-2.1-15-6.9-20.4l-2.2-2.2c0,0,0,0,0,0l-61.7-61.3
			c2.1-3.2,3.4-6.9,3.8-10.9c1-12.8-8.5-24-21.3-25c-5.4-0.4-10.6,1-14.8,3.8c-2.7,1.8-5,4.2-6.8,6.9c-1.9,3.1-3.2,6.6-3.5,10.5
			c-0.7,8.1,3,15.6,8.9,20.2c2.7,2.1,5.9,3.6,9.3,4.3c1,0.2,2,0.4,3,0.4c5.3,0.4,10.3-0.9,14.4-3.6l48.2,47.9l13.6,13.5c0,0,0,0,0,0
			c0.6,0.5,1.1,1.1,1.7,1.6c0,0,0,0,0.1,0.1c3,3.4,4.6,8,4.3,12.9c-0.8,9.6-9.2,16.8-18.9,16c-3.9-0.3-7.4-1.9-10.1-4.2
			c0,0-0.1,0-0.1-0.1c-0.6-0.5-1.1-1-1.6-1.6c0,0-0.1,0-0.1-0.1L216.1,307l-55.4-55l-6.9-6.8l-17.8-17.6l-1.9-1.9c0,0,0,0,0,0
			c-1.3-1.1-2.8-2-4.4-2.6c-1.4-0.6-3-1-4.6-1.1c-2.6-0.2-5,0.2-7.3,1.1c-1.6,0.6-3.1,1.5-4.4,2.6l-2,2l-65.6,65.8l-4.4,4.5
			c-3,3.9-5,8.7-5.4,13.9C35.9,313.5,35.9,315.1,36.1,316.6z M117.1,273.2c2.5,0.2,4.8,1,6.8,2.1c2.9,1.7,5.1,4.2,6.4,7.2
			c1,2.3,1.5,4.9,1.3,7.7c-0.7,8.7-8.4,15.2-17.1,14.5c-1.8-0.1-3.5-0.6-5-1.3c-3.1-1.3-5.6-3.6-7.3-6.4c-1.6-2.7-2.5-6-2.2-9.4
			C100.7,279,108.4,272.5,117.1,273.2z M194.1,222.3c-1.6,2.9-4,5.3-6.9,6.7c-1.5,0.8-3.2,1.3-5,1.5c-1.1,0.1-2.2,0.2-3.4,0.1
			c-2.9-0.2-5.5-1.2-7.7-2.7c-4.5-3.1-7.3-8.5-6.9-14.3c0.2-2,0.7-4,1.6-5.7c1.5-3,3.8-5.4,6.7-6.9c2.6-1.4,5.6-2.1,8.8-1.8
			c8.7,0.7,15.2,8.3,14.5,17C195.7,218.4,195.1,220.4,194.1,222.3z"/>
		<path class="st3" d="M315.1,301.6c0.1,0,0.3,0,0.4-0.1c5.3-0.6,10.2-2.8,14.1-6.2c0,0,0.1-0.1,0.1-0.1c0.8-0.7,1.6-1.5,2.3-2.3
			c0,0,0.1-0.1,0.1-0.1c3.4-3.9,5.7-8.8,6.3-14.3l0-0.2c0-0.2,0-0.3,0.1-0.5c0.6-7.4-1.9-14.3-6.5-19.4c-0.4-0.4-0.8-0.8-1.2-1.2
			l-1.2-1.2l-22.3-22.1c1.7-2.9,2.8-6.3,3.1-9.9c1-12.8-8.5-24-21.3-25c-5-0.4-9.8,0.8-13.8,3.2c-2.8,1.7-5.2,3.9-7.1,6.6
			c-2.3,3.3-3.8,7.2-4.2,11.5c-1,12.8,8.5,24,21.3,25c5.7,0.5,11.1-1.2,15.4-4.2l8.8,8.8l0,0l14.2,14.1l0.3,0.3
			c0.3,0.3,0.6,0.6,0.9,0.9c0,0,0,0,0,0c3,3.3,4.7,7.8,4.4,12.6c-0.3,3.7-1.7,6.9-4,9.5c0,0,0,0-0.1,0.1c-0.4,0.5-0.9,1-1.5,1.5
			c0,0,0,0.1-0.1,0.1c-3.2,2.8-7.5,4.4-12.1,4c-3.1-0.3-6-1.4-8.4-3.1c-1.3-0.9-2.4-2.1-3.3-3.3l-13.7-13.6l-44.2-43.9l-9.2-9.1
			l-1.7-1.7c-1-1.3-1.5-3-1.3-4.8c0.1-1.2,0.5-2.3,1.1-3.2l2.3-2.3l8.8-8.8l8.2-8.2l6.8-6.9l68.1-68.3l3.4-3.4
			c3.5-4.2,5.8-9.4,6.3-15.2c0.1-1.6,0.1-3.2,0-4.7c-1.2-12.9-11.5-23.5-24.8-24.6l-0.1,0c-7.8-0.6-15.1,2.1-20.4,6.9l-2.2,2.2
			c0,0,0,0,0,0l-61.4,61.6c-3.2-2.1-6.9-3.4-10.9-3.8c-12.8-1-24,8.5-25,21.2c-0.4,5.4,1,10.6,3.8,14.8c1.8,2.7,4.2,5,6.9,6.7
			c3.1,1.9,6.7,3.2,10.5,3.5c8.1,0.7,15.6-2.9,20.3-8.9c2.1-2.7,3.6-5.8,4.3-9.3c0.2-1,0.4-2,0.4-3c0.4-5.3-0.9-10.2-3.6-14.4
			l48-48.1l13.6-13.6c0,0,0,0,0,0c0.5-0.6,1.1-1.1,1.7-1.7c0,0,0,0,0.1-0.1c3.4-3,8-4.6,12.9-4.2c9.7,0.8,16.8,9.2,16.1,18.9
			c-0.3,3.9-1.9,7.3-4.3,10.1c0,0,0,0.1-0.1,0.1c-0.5,0.6-1,1.1-1.6,1.6c0,0,0,0.1-0.1,0.1l-13.6,13.6l-55.1,55.2l-6.8,6.8
			l-17.7,17.7l-1.9,1.9c0,0,0,0,0,0c-1.1,1.3-2,2.8-2.6,4.4c-0.6,1.4-1,3-1.1,4.6c-0.2,2.6,0.2,5,1.1,7.3c0.6,1.6,1.5,3.1,2.6,4.4
			l2,2l65.9,65.5l4.5,4.4c3.9,3,8.7,5,14,5.4C312,301.8,313.5,301.8,315.1,301.6z M271.6,220.8c0.2-2.5,1-4.8,2.2-6.8
			c1.7-2.8,4.2-5.1,7.2-6.4c2.3-1,5-1.5,7.7-1.3c8.7,0.7,15.2,8.3,14.5,17c-0.1,1.8-0.6,3.5-1.3,5c-1.3,3.1-3.6,5.6-6.4,7.3
			c-2.7,1.6-6,2.5-9.4,2.2C277.4,237.1,270.9,229.5,271.6,220.8z M220.5,143.9c2.9,1.5,5.3,4,6.8,6.9c0.8,1.5,1.3,3.2,1.5,5
			c0.1,1.1,0.2,2.2,0.1,3.4c-0.2,2.8-1.2,5.5-2.7,7.7c-3.1,4.5-8.5,7.3-14.4,6.8c-2-0.2-4-0.7-5.7-1.6c-3-1.5-5.4-3.8-7-6.7
			c-1.4-2.6-2.1-5.6-1.8-8.8c0.7-8.7,8.4-15.2,17.1-14.5C216.6,142.3,218.7,142.9,220.5,143.9z"/>
	</g>
	<g>
		<g>
			<g>
				<g>
					<polygon class="st4" points="576,208.2 525.2,208.2 508.6,157.6 462.4,157.6 479,107 492.1,107 485.5,87.1 473.6,50.7 
						524.3,50.7 542.8,107 559.3,157.6 					"/>
					<polygon class="st4" points="485.9,0.1 471.4,44.1 469.2,50.7 450.8,107 434.3,157.6 417.6,208.2 366.9,208.2 383.6,157.6 
						400.1,107 418.5,50.7 435.2,0.1 					"/>
				</g>
				<polygon class="st4" points="1000,79.3 981,129.9 899.3,129.9 899.3,155.3 848.6,132.6 848.6,0.5 969.7,0.5 988.7,51.1 
					899.3,51.1 899.3,79.3 				"/>
				<polygon class="st4" points="899.3,183.4 899.3,208.6 848.6,208.6 848.6,160.7 				"/>
				<g>
					<polygon class="st4" points="657.8,189 657.8,208.3 608.4,208.3 608.4,147.5 					"/>
					<polygon class="st4" points="816.9,0.3 816.9,208.3 767.5,208.3 657.8,71.4 657.8,157.9 608.4,116.4 608.4,0.3 657.8,0.3 
						767.5,137.1 767.5,0.3 					"/>
				</g>
			</g>
		</g>
		<g>
			<path class="st4" d="M367.8,220.9v-4.8h36.4v4.8h-14.8v43.9h-6.8v-43.9H367.8z"/>
			<path class="st4" d="M413.8,216.1h38v4.8h-31.4v15.3h31.1v4.8h-31.1V260h31.1v4.8h-37.8V216.1z"/>
			<path class="st4" d="M525.1,225.1l-5.2,2.9c-2.9-2.8-6.4-4.8-10.4-6.3c-4-1.4-8.5-2.1-13.3-2.1c-5.3,0-10.2,0.9-14.7,2.8
				c-4.5,1.9-8,4.4-10.5,7.5c-2.5,3.1-3.7,6.7-3.7,10.6c0,5.9,2.8,10.9,8.3,14.9c5.6,4,12.6,6,21,6c9.3,0,17.1-2.7,23.3-8l5.2,2.9
				c-3.3,3.1-7.4,5.5-12.4,7.2c-4.9,1.7-10.5,2.5-16.6,2.5c-11.6,0-20.8-2.8-27.5-8.5c-5.6-4.8-8.4-10.6-8.4-17.3
				c0-7.1,3.4-13.1,10.2-18s15.3-7.3,25.6-7.3c6.2,0,11.8,0.9,16.8,2.7C517.9,219.4,522,221.9,525.1,225.1z"/>
			<path class="st4" d="M538.4,216.1h6.6v20.4h33.8v-20.4h6.6v48.7h-6.6v-23.5H545v23.5h-6.6V216.1z"/>
			<path class="st4" d="M601.6,264.8v-48.7h1.4l44.2,37.3v-37.3h6.5v48.7h-1.5l-43.8-36.9v36.9H601.6z"/>
			<path class="st4" d="M701.6,214.9c10.1,0,18.5,2.5,25.2,7.4c6.8,4.9,10.2,11,10.2,18.2c0,7.1-3.4,13.2-10.1,18.1
				c-6.8,5-15,7.4-24.7,7.4c-9.8,0-18.2-2.5-24.9-7.4c-6.8-4.9-10.2-10.9-10.2-17.9c0-4.7,1.5-9,4.6-13c3.1-4,7.3-7.1,12.6-9.4
				S695.4,214.9,701.6,214.9z M701.9,219.6c-4.9,0-9.6,0.9-14,2.8c-4.4,1.9-7.8,4.4-10.3,7.6c-2.5,3.2-3.7,6.7-3.7,10.6
				c0,5.8,2.7,10.7,8.2,14.7c5.5,4,12.1,6,19.8,6c5.2,0,9.9-0.9,14.3-2.7c4.4-1.8,7.8-4.3,10.3-7.5c2.5-3.2,3.7-6.7,3.7-10.6
				c0-3.9-1.2-7.4-3.7-10.5c-2.5-3.1-5.9-5.6-10.4-7.5C711.6,220.5,706.9,219.6,701.9,219.6z"/>
			<path class="st4" d="M750.3,216.1h6.6v44h25.5v4.7h-32.2V216.1z"/>
			<path class="st4" d="M824.6,214.9c10.1,0,18.5,2.5,25.2,7.4c6.8,4.9,10.2,11,10.2,18.2c0,7.1-3.4,13.2-10.1,18.1
				s-15,7.4-24.7,7.4c-9.8,0-18.2-2.5-24.9-7.4c-6.8-4.9-10.2-10.9-10.2-17.9c0-4.7,1.5-9,4.6-13c3.1-4,7.3-7.1,12.6-9.4
				C812.6,216,818.4,214.9,824.6,214.9z M824.9,219.6c-4.9,0-9.6,0.9-14,2.8c-4.4,1.9-7.8,4.4-10.3,7.6c-2.5,3.2-3.7,6.7-3.7,10.6
				c0,5.8,2.7,10.7,8.2,14.7c5.5,4,12.1,6,19.8,6c5.2,0,9.9-0.9,14.3-2.7c4.4-1.8,7.8-4.3,10.3-7.5c2.5-3.2,3.7-6.7,3.7-10.6
				c0-3.9-1.2-7.4-3.7-10.5s-5.9-5.6-10.4-7.5C834.6,220.5,829.9,219.6,824.9,219.6z"/>
			<path class="st4" d="M937.3,224.3l-5.1,3.6c-3.7-2.7-7.8-4.7-12.2-6.1c-4.4-1.4-8.7-2.1-12.9-2.1c-5.2,0-10.2,0.9-14.9,2.8
				c-4.7,1.9-8.4,4.4-10.9,7.6c-2.6,3.2-3.9,6.6-3.9,10.2c0,3.7,1.3,7.1,4,10.4c2.7,3.3,6.4,5.9,11.1,7.8c4.7,1.9,9.9,2.8,15.5,2.8
				c6.8,0,12.6-1.4,17.3-4.2c4.7-2.8,7.5-6.5,8.4-11h-21.2v-4.7h28.6c-0.1,7.5-3.1,13.5-9.1,17.9c-6,4.4-14.1,6.6-24.2,6.6
				c-12.3,0-22-3.1-29.2-9.2c-5.5-4.7-8.3-10.2-8.3-16.4c0-4.6,1.6-8.9,4.7-12.9c3.2-4,7.5-7.1,13-9.3c5.5-2.2,11.7-3.4,18.7-3.4
				c5.6,0,10.9,0.7,15.9,2.2C927.7,218.6,932.6,221,937.3,224.3z"/>
			<path class="st4" d="M948.6,216.1h7.6l17,20.1l16.7-20.1h7.7l-21,25.4v23.3h-6.5v-23.3L948.6,216.1z"/>
		</g>
	</g>
</g>
</svg>
