<svg xmlns="http://www.w3.org/2000/svg" width="600" height="400" viewBox="0 0 600 400">
  <defs>
    <radialGradient id="svgBgGlow" cx="50%" cy="50%" r="50%">
      <stop offset="35%" stop-color="var(--svg-bg-center, rgba(3, 7, 18, 0.95))" />
      <stop offset="70%" stop-color="var(--svg-bg-edge, rgba(6, 9, 19, 0))" />
    </radialGradient>
  </defs>
  <g id="artwork" fill-rule="evenodd">
    <circle cx="300" cy="210" r="280" fill="url(#svgBgGlow)" pointer-events="none" />
    <g id="layer_1_6dceee">
      <path d="M 332 298 L 332 303 L 336 305 L 336 300 Z M 326 295 L 326 299 L 328 301 L 330 301 L 330 297 Z M 320 292 L 320 296 L 324 298 L 324 294 Z M 314 289 L 314 293 L 318 295 L 318 291 L 316 289 Z M 332 288 L 332 292 L 336 294 L 336 290 Z M 326 285 L 326 289 L 330 291 L 330 287 Z M 320 282 L 320 286 L 324 288 L 324 284 L 322 282 Z M 332 278 L 332 282 L 336 284 L 336 280 Z M 314 278 L 314 282 L 318 284 L 318 280 Z M 326 275 L 326 278 L 330 281 L 330 276 Z M 320 271 L 320 275 L 324 277 L 324 273 Z M 332 268 L 332 271 L 334 273 L 336 273 L 336 270 L 334 268 Z M 314 268 L 314 272 L 318 274 L 318 270 Z M 75 266 L 85 271 L 87 273 L 90 274 L 92 276 L 97 278 L 101 281 L 105 278 L 101 280 L 95 276 L 90 274 L 88 272 L 83 270 L 76 265 Z M 326 264 L 326 268 L 330 270 L 330 266 Z M 314 258 L 314 261 L 318 264 L 318 260 L 316 258 Z M 332 257 L 332 261 L 336 263 L 336 259 Z M 143 255 L 143 258 L 144 259 L 147 260 L 149 262 L 151 262 L 151 259 L 148 257 L 147 258 L 146 256 Z M 326 254 L 326 258 L 330 260 L 330 256 Z M 138 252 L 138 256 L 141 257 L 141 254 Z M 320 251 L 320 255 L 324 257 L 324 253 L 322 251 Z M 370 249 L 370 273 L 556 380 L 578 370 Z M 133 249 L 133 253 L 136 254 L 136 251 Z M 332 248 L 332 252 L 336 253 L 336 249 Z M 314 247 L 314 251 L 318 253 L 318 249 Z M 143 246 L 143 250 L 148 252 L 150 254 L 151 253 L 151 251 L 149 249 L 147 249 Z M 327 244 L 326 245 L 326 248 L 330 250 L 330 246 Z M 138 243 L 138 247 L 139 248 L 141 248 L 141 245 Z M 133 241 L 133 244 L 134 245 L 136 245 L 136 243 Z M 314 238 L 314 242 L 318 244 L 318 240 L 316 238 Z M 332 237 L 332 241 L 336 243 L 336 239 Z M 143 237 L 143 241 L 151 245 L 151 242 L 148 240 L 147 241 L 146 239 Z M 326 234 L 326 238 L 330 240 L 330 236 Z M 133 232 L 133 236 L 135 237 L 136 236 L 136 234 Z M 320 231 L 320 235 L 324 237 L 324 233 L 322 231 Z M 143 229 L 143 232 L 145 234 L 147 234 L 149 236 L 151 236 L 151 234 L 149 232 L 147 232 Z M 332 227 L 332 231 L 336 233 L 336 229 Z M 138 226 L 138 230 L 141 231 L 141 228 Z M 326 224 L 326 227 L 330 230 L 330 225 Z M 224 224 L 224 234 L 230 237 L 232 239 L 232 229 Z M 133 223 L 133 227 L 134 228 L 136 228 L 136 226 Z M 143 221 L 143 224 L 145 226 L 147 226 L 149 228 L 151 228 L 151 226 L 149 224 L 147 224 Z M 320 220 L 320 224 L 324 226 L 324 222 Z M 332 217 L 332 221 L 336 222 L 336 218 Z M 314 217 L 314 221 L 318 223 L 318 219 Z M 133 215 L 133 219 L 134 220 L 136 220 L 136 218 Z M 143 212 L 143 216 L 146 217 L 150 220 L 151 219 L 151 217 L 148 215 L 147 216 L 146 214 Z M 320 210 L 320 214 L 324 216 L 324 212 Z M 138 210 L 138 213 L 139 214 L 141 214 L 141 212 Z M 314 207 L 314 211 L 318 213 L 318 209 L 316 207 Z M 332 206 L 332 210 L 336 212 L 336 208 Z M 143 204 L 143 207 L 144 208 L 147 209 L 149 211 L 151 211 L 151 209 L 148 206 L 147 207 L 146 205 Z M 326 203 L 326 207 L 330 209 L 330 205 Z M 288 202 L 288 225 L 294 229 L 299 231 L 301 233 L 306 235 L 308 237 L 311 238 L 311 215 L 302 211 L 300 209 L 295 207 Z M 305 223 L 306 222 L 308 222 L 310 225 L 309 226 L 307 226 Z M 297 218 L 298 217 L 300 217 L 302 220 L 301 221 L 299 221 Z M 291 212 L 294 214 L 294 216 L 293 217 L 289 214 Z M 75 203 L 92 212 L 99 217 L 102 217 L 104 215 L 116 209 L 123 204 L 128 202 L 126 202 L 124 204 L 119 206 L 117 208 L 101 217 L 92 212 L 90 210 L 85 208 L 83 206 L 78 204 L 76 202 L 75 202 Z M 138 201 L 138 205 L 140 206 L 141 205 L 141 203 Z M 320 200 L 320 204 L 324 206 L 324 202 L 322 200 Z M 179 199 L 179 209 L 187 214 L 187 204 Z M 224 198 L 224 208 L 230 211 L 232 213 L 232 203 L 230 201 Z M 147 198 L 147 200 L 150 203 L 151 202 L 151 200 L 149 198 Z M 133 198 L 133 202 L 136 203 L 136 200 Z M 138 192 L 138 196 L 139 197 L 141 197 L 141 195 Z M 133 190 L 133 193 L 134 194 L 136 194 L 136 192 Z M 143 186 L 143 190 L 151 194 L 151 191 L 145 188 Z M 138 184 L 138 187 L 140 189 L 141 188 L 141 186 Z M 126 197 L 123 196 L 118 192 L 113 190 L 111 188 L 102 183 L 76 198 L 101 212 L 105 209 L 110 207 L 112 205 L 117 203 L 119 201 L 124 199 Z M 194 181 L 194 192 L 201 196 L 203 196 L 203 187 Z M 223 172 L 223 181 L 226 184 L 232 187 L 233 177 L 227 173 Z M 209 163 L 209 174 L 218 179 L 218 168 L 213 166 Z M 158 165 L 156 164 L 157 163 L 151 166 L 144 166 L 150 167 L 151 166 L 156 166 Z M 194 155 L 193 156 L 193 165 L 198 169 L 203 171 L 203 161 Z M 24 192 L 21 205 L 24 214 L 31 221 L 270 359 L 291 348 L 45 205 L 47 200 L 118 160 L 111 149 L 114 138 Z M 273 347 L 276 350 L 275 352 L 271 350 Z M 258 341 L 259 340 L 261 340 L 264 344 L 262 345 L 260 344 Z M 245 334 L 246 333 L 249 333 L 252 336 L 250 338 Z M 233 326 L 235 325 L 237 326 L 239 329 L 238 330 L 236 330 L 233 328 Z M 220 319 L 221 318 L 223 318 L 226 320 L 226 322 L 224 323 L 222 322 Z M 207 311 L 209 310 L 211 311 L 213 314 L 212 315 L 210 315 L 207 313 Z M 194 304 L 195 303 L 197 303 L 201 306 L 198 308 L 195 306 Z M 182 296 L 184 295 L 187 297 L 188 299 L 187 300 L 185 300 L 182 298 Z M 169 289 L 170 288 L 172 288 L 175 292 L 173 293 L 171 292 Z M 156 282 L 158 280 L 160 281 L 162 284 L 161 285 L 159 285 L 157 284 Z M 143 275 L 146 273 L 150 276 L 147 278 Z M 131 266 L 132 265 L 137 269 L 135 271 L 131 268 Z M 118 259 L 120 258 L 122 259 L 124 262 L 123 263 L 121 263 L 118 261 Z M 105 252 L 106 251 L 108 251 L 110 252 L 111 254 L 109 256 L 107 255 Z M 92 245 L 95 243 L 98 247 L 97 248 L 95 248 Z M 80 237 L 81 236 L 83 236 L 86 239 L 84 241 L 82 240 Z M 67 229 L 69 228 L 71 229 L 73 232 L 72 233 L 70 233 L 67 231 Z M 54 222 L 55 221 L 57 221 L 60 223 L 60 225 L 58 226 L 56 225 Z M 41 215 L 43 213 L 45 214 L 47 217 L 46 218 L 44 218 L 42 217 Z M 33 203 L 35 204 L 35 206 L 36 207 L 35 209 L 33 209 L 32 208 L 32 206 L 31 205 Z M 39 190 L 41 192 L 37 196 L 36 196 L 35 195 L 35 193 Z M 52 183 L 53 184 L 53 186 L 50 188 L 48 188 L 47 186 L 49 184 Z M 60 179 L 60 178 L 63 176 L 65 176 L 66 177 L 66 178 L 62 181 Z M 78 168 L 79 169 L 79 171 L 76 173 L 74 173 L 73 171 L 75 169 Z M 86 165 L 86 163 L 89 161 L 91 161 L 92 162 L 90 165 L 88 166 Z M 103 153 L 105 155 L 100 159 L 98 157 Z M 148 127 L 144 129 L 144 135 L 145 135 L 144 134 L 146 132 L 148 132 Z M 123 124 L 121 126 L 122 127 L 122 133 L 123 133 Z M 167 115 L 167 119 L 166 120 L 167 121 L 167 130 L 170 135 L 170 145 L 169 146 L 168 145 L 168 139 L 168 145 L 166 150 L 161 156 L 156 159 L 154 159 L 156 159 L 164 153 L 165 154 L 166 153 L 167 154 L 167 163 L 177 169 L 185 161 L 187 163 L 188 162 L 188 154 L 190 150 L 190 138 L 189 137 L 188 132 L 185 127 L 178 120 L 169 115 Z M 179 147 L 184 149 L 188 152 L 188 157 L 185 161 L 183 161 L 178 157 L 178 148 Z M 171 127 L 175 129 L 176 134 L 177 135 L 177 143 L 176 144 L 176 148 L 173 152 L 172 150 L 171 152 L 169 150 L 171 145 L 171 141 L 172 140 L 171 132 L 169 129 Z M 148 112 L 145 113 L 145 121 L 143 125 L 145 126 L 144 127 L 148 124 L 150 124 L 151 123 L 156 123 L 149 123 L 148 122 Z M 316 76 L 316 77 L 320 80 L 332 86 L 341 92 L 343 91 L 342 92 L 337 88 L 334 87 L 332 85 L 327 83 L 325 81 L 320 79 Z M 291 76 L 291 79 L 288 81 L 288 88 L 287 89 L 289 91 L 292 89 L 293 87 L 293 83 L 294 82 L 294 78 Z M 167 107 L 257 159 L 331 117 L 316 109 L 316 115 L 311 122 L 258 151 L 181 105 L 187 98 L 233 72 L 234 67 Z M 316 71 L 332 80 L 334 82 L 339 84 L 341 86 L 346 82 L 351 80 L 353 78 L 370 69 L 367 68 L 365 66 L 362 65 L 360 63 L 355 61 L 351 58 L 344 59 L 339 57 L 346 60 L 349 60 L 352 63 L 349 65 L 343 65 L 333 59 L 316 69 Z M 255 47 L 255 58 L 256 59 L 255 60 L 255 72 L 261 76 L 261 71 L 261 74 L 260 75 L 255 71 L 255 64 L 257 63 L 260 66 L 256 61 L 257 60 L 260 62 L 260 61 L 257 60 L 255 58 L 255 49 L 256 48 L 257 50 L 260 52 L 260 56 L 260 52 L 258 51 Z M 245 27 L 245 28 L 246 28 L 247 30 L 250 32 L 250 40 L 249 41 L 245 37 L 245 33 L 245 38 L 246 39 L 245 40 L 245 51 L 247 53 L 245 54 L 245 65 L 251 69 L 251 60 L 247 56 L 248 54 L 250 55 L 250 54 L 247 53 L 245 51 L 245 42 L 246 41 L 250 46 L 250 45 L 248 44 L 245 40 L 247 39 L 250 42 L 250 32 L 246 28 L 246 27 Z M 246 56 L 251 60 L 251 67 L 250 68 L 245 64 L 245 57 Z M 344 20 L 347 23 L 349 23 L 346 19 Z" fill="#6dceee"/>
    </g>
    <g id="layer_2_1aabdb">
      <path d="M 405 294 L 406 295 L 406 298 L 409 300 L 414 302 L 416 304 L 421 306 L 423 308 L 426 309 L 428 311 L 433 313 L 435 315 L 440 317 L 444 320 L 447 318 L 448 319 Z M 115 280 L 122 280 L 119 278 Z M 75 267 L 74 271 L 76 273 L 80 274 L 85 278 L 90 280 L 99 286 L 98 287 L 77 287 L 77 298 L 100 298 L 100 287 L 101 286 L 101 282 Z M 99 266 L 101 268 L 101 279 L 109 275 L 111 273 L 101 268 Z M 159 249 L 157 249 L 155 251 L 155 254 L 159 252 Z M 173 248 L 171 249 L 169 252 L 168 251 L 161 255 L 163 254 L 164 255 L 164 257 L 161 259 L 170 253 L 173 252 Z M 187 247 L 188 264 L 200 264 L 201 263 L 201 255 Z M 214 241 L 209 244 L 209 248 L 214 245 Z M 173 241 L 172 241 L 169 245 L 168 243 L 166 245 L 161 247 L 161 251 L 165 248 L 167 248 L 169 246 L 172 245 L 173 244 Z M 158 241 L 155 243 L 155 246 L 157 246 L 159 244 L 159 242 Z M 130 238 L 130 253 L 155 268 L 155 266 L 158 264 L 159 265 L 159 267 L 157 269 L 163 272 L 165 274 L 165 265 L 169 261 L 173 260 L 173 256 L 169 259 L 167 259 L 164 261 L 160 261 L 159 260 L 159 256 L 158 256 L 155 258 L 155 260 L 154 261 L 152 258 L 152 238 L 146 238 L 152 242 L 152 245 L 151 246 L 149 246 L 144 243 L 142 241 L 142 238 L 142 240 L 141 241 L 138 240 L 137 238 Z M 163 261 L 164 262 L 164 265 L 161 267 L 160 266 L 160 263 Z M 158 256 L 159 257 L 159 260 L 156 262 L 155 261 L 155 259 Z M 142 254 L 143 253 L 147 256 L 150 257 L 152 259 L 152 263 L 151 264 L 142 259 Z M 138 251 L 142 253 L 142 257 L 141 258 L 137 256 L 137 252 Z M 133 248 L 137 251 L 137 254 L 136 255 L 134 255 L 132 253 L 132 249 Z M 142 246 L 144 245 L 146 246 L 147 248 L 151 249 L 152 250 L 152 254 L 150 255 L 146 252 L 143 251 L 142 250 Z M 138 242 L 142 245 L 142 249 L 141 250 L 137 247 L 137 243 Z M 133 239 L 137 242 L 137 246 L 136 247 L 132 244 L 132 240 Z M 168 236 L 161 240 L 161 243 L 164 242 L 165 240 L 166 241 L 168 239 Z M 158 234 L 156 235 L 155 239 L 158 238 Z M 173 233 L 170 235 L 170 238 L 173 237 Z M 348 232 L 346 232 L 344 234 L 344 238 L 348 236 Z M 164 232 L 162 232 L 161 233 L 161 236 L 164 234 Z M 354 229 L 350 230 L 350 234 L 354 232 Z M 214 227 L 209 230 L 209 234 L 214 231 Z M 309 243 L 290 232 L 287 229 L 287 226 L 260 231 L 259 287 L 256 290 L 210 291 L 256 291 L 258 307 L 291 307 L 307 298 L 307 252 L 309 249 Z M 173 226 L 170 228 L 170 231 L 173 229 Z M 359 225 L 356 227 L 356 231 L 359 230 Z M 348 223 L 344 225 L 344 228 L 346 228 L 348 226 Z M 365 222 L 362 224 L 362 228 L 365 226 Z M 353 220 L 350 222 L 350 225 L 354 223 L 354 221 Z M 359 217 L 356 218 L 356 222 L 359 220 Z M 365 214 L 362 215 L 362 218 L 365 217 Z M 279 212 L 277 212 L 271 215 L 269 217 L 269 227 L 271 227 L 273 225 L 279 222 Z M 287 207 L 285 208 L 285 219 L 287 218 Z M 75 204 L 74 206 L 74 208 L 75 209 L 77 209 L 79 211 L 84 213 L 91 218 L 96 220 L 101 224 L 101 237 L 126 251 L 126 210 L 102 224 L 101 223 L 101 219 Z M 278 189 L 270 193 L 270 204 L 279 198 L 279 190 Z M 129 180 L 121 180 L 121 193 L 126 196 L 127 198 L 101 213 L 101 216 L 126 201 L 128 201 L 129 202 L 129 208 Z M 167 174 L 164 176 L 161 176 L 160 177 L 144 177 L 142 176 L 152 182 L 154 182 L 156 180 Z M 258 167 L 256 170 L 219 170 L 218 180 L 208 174 L 208 170 L 204 170 L 203 172 L 199 170 L 176 170 L 177 221 L 186 221 L 187 224 L 187 215 L 177 209 L 177 199 L 179 198 L 189 205 L 188 208 L 201 216 L 200 231 L 201 216 L 215 207 L 217 208 L 217 227 L 222 227 L 223 223 L 231 227 L 256 227 L 258 219 Z M 193 207 L 201 202 L 203 202 L 210 207 L 203 212 L 200 212 Z M 223 197 L 227 198 L 234 203 L 234 213 L 233 214 L 231 214 L 229 212 L 226 211 L 222 207 L 222 198 Z M 209 188 L 219 194 L 219 205 L 218 206 L 215 205 L 208 200 L 208 189 Z M 193 180 L 204 186 L 204 197 L 203 198 L 195 194 L 192 191 L 192 181 Z M 178 172 L 182 173 L 189 178 L 189 189 L 188 190 L 177 184 L 177 173 Z M 223 170 L 229 173 L 234 177 L 234 187 L 233 188 L 231 188 L 222 182 L 222 171 Z M 370 164 L 357 166 L 354 163 L 346 173 L 339 176 L 328 174 L 311 185 L 310 214 L 312 184 L 339 200 L 339 254 L 330 253 L 340 260 L 339 284 L 329 285 L 330 292 L 325 289 L 325 285 L 324 289 L 319 285 L 311 285 L 311 294 L 319 296 L 319 292 L 322 291 L 325 296 L 327 294 L 339 297 L 340 335 L 359 335 L 369 329 L 369 241 L 357 240 L 365 235 L 365 231 L 357 235 L 355 241 L 354 237 L 349 241 L 339 240 L 339 201 L 369 183 L 370 209 Z M 347 292 L 348 293 L 348 297 L 344 299 L 343 298 L 344 294 Z M 353 289 L 354 290 L 354 293 L 351 295 L 350 294 L 350 291 Z M 332 287 L 335 288 L 337 290 L 337 294 L 336 295 L 334 295 L 331 292 L 331 288 Z M 314 287 L 319 290 L 319 295 L 318 296 L 313 293 L 313 288 Z M 359 286 L 360 287 L 360 290 L 358 292 L 356 292 L 355 291 L 355 288 Z M 347 283 L 348 284 L 348 287 L 345 290 L 344 289 L 344 285 Z M 365 282 L 366 283 L 366 286 L 362 289 L 361 288 L 361 285 Z M 353 280 L 354 281 L 354 284 L 351 286 L 350 285 L 350 282 Z M 359 277 L 360 278 L 360 281 L 356 283 L 355 282 L 355 279 Z M 364 274 L 365 275 L 365 278 L 362 280 L 361 279 L 361 276 Z M 347 274 L 348 275 L 348 278 L 345 281 L 344 280 L 344 276 Z M 353 271 L 354 272 L 354 275 L 351 277 L 350 276 L 350 273 Z M 359 268 L 360 269 L 360 272 L 357 274 L 356 273 L 356 270 Z M 364 265 L 365 266 L 365 269 L 362 271 L 361 270 L 361 267 Z M 347 265 L 348 266 L 348 269 L 345 271 L 344 270 L 344 267 Z M 353 262 L 354 263 L 354 266 L 351 268 L 350 267 L 350 264 Z M 359 259 L 360 260 L 360 263 L 357 265 L 356 264 L 356 261 Z M 347 257 L 348 258 L 348 261 L 345 263 L 344 262 L 344 259 Z M 364 256 L 365 257 L 365 260 L 362 262 L 361 261 L 361 258 Z M 350 259 L 350 257 L 351 256 L 353 256 L 354 257 L 351 260 Z M 351 175 L 351 177 L 343 182 L 340 182 L 339 183 L 331 183 L 327 181 L 327 179 L 328 178 L 338 178 L 343 176 L 347 173 Z M 341 163 L 341 165 L 339 168 L 334 171 L 338 171 L 342 169 L 341 167 Z M 144 154 L 146 156 L 145 157 L 146 158 L 151 158 L 152 157 L 150 158 L 148 154 Z M 165 143 L 161 145 L 161 150 L 163 148 Z M 164 135 L 161 137 L 161 140 L 162 141 L 164 140 Z M 161 120 L 161 124 L 162 125 L 162 124 L 164 123 L 164 121 L 162 121 Z M 164 111 L 161 112 L 161 116 L 164 114 Z M 164 102 L 161 104 L 161 106 L 164 104 Z M 367 95 L 355 102 L 355 108 L 365 103 L 367 101 Z M 316 78 L 316 84 L 321 86 L 323 88 L 328 90 L 330 92 L 335 94 L 341 98 L 341 93 L 325 84 L 323 82 L 318 80 Z M 160 46 L 155 50 L 153 50 L 150 52 L 140 52 L 140 54 L 138 56 L 121 66 L 144 79 L 149 83 L 149 115 L 149 83 L 151 81 L 179 65 L 159 54 L 157 51 L 160 49 Z M 132 66 L 150 55 L 167 65 L 166 67 L 160 70 L 158 72 L 153 74 L 151 76 L 148 76 L 146 74 L 141 72 Z M 209 50 L 209 51 L 234 65 L 234 36 Z M 238 15 L 238 69 L 282 95 L 282 85 L 284 83 L 282 82 L 283 79 L 281 78 L 283 73 L 284 76 L 286 77 L 290 73 L 294 77 L 294 70 L 308 55 L 289 45 L 288 51 L 279 53 L 277 50 L 275 39 L 273 35 Z M 268 81 L 269 80 L 271 80 L 272 82 L 270 83 Z M 293 71 L 294 72 L 294 76 L 293 77 L 291 75 L 291 73 Z M 270 71 L 272 72 L 272 79 L 271 80 L 270 79 L 270 73 L 269 72 Z M 261 69 L 262 70 L 262 76 L 261 77 L 257 74 L 258 73 L 260 74 L 260 70 Z M 266 66 L 270 71 L 268 72 L 267 70 L 267 78 L 268 79 L 267 80 L 265 79 L 265 67 Z M 255 59 L 258 62 L 258 63 L 256 64 L 256 71 L 257 72 L 256 73 L 254 72 L 254 60 Z M 250 58 L 252 59 L 252 69 L 251 70 L 247 67 L 248 66 L 250 67 L 250 60 L 249 59 Z M 269 57 L 272 59 L 272 69 L 271 70 L 269 68 L 270 67 L 270 60 L 268 58 Z M 288 54 L 290 56 L 290 61 L 288 65 L 287 64 L 287 55 Z M 264 54 L 266 53 L 268 56 L 267 57 L 265 56 Z M 246 53 L 248 52 L 250 53 L 251 55 L 250 56 Z M 260 51 L 261 52 L 261 56 L 260 57 L 259 56 L 259 52 Z M 255 46 L 257 48 L 256 49 L 256 58 L 255 59 L 254 58 L 254 47 Z M 271 45 L 272 46 L 272 55 L 270 56 L 268 54 L 270 53 L 270 46 Z M 247 44 L 249 43 L 251 46 L 250 47 Z M 265 39 L 267 40 L 270 44 L 268 45 L 266 42 L 266 50 L 269 53 L 268 54 L 264 51 L 264 40 Z M 245 39 L 247 41 L 246 42 L 246 51 L 247 52 L 246 53 L 250 58 L 248 59 L 246 57 L 246 64 L 248 66 L 247 67 L 244 65 L 244 40 Z M 260 38 L 261 39 L 261 48 L 259 49 L 257 47 L 259 46 L 259 39 Z M 250 31 L 251 32 L 251 42 L 250 43 L 248 41 L 249 40 L 249 32 Z M 246 29 L 247 28 L 250 31 L 248 32 Z M 244 26 L 246 26 L 247 27 L 246 29 L 246 37 L 249 40 L 248 41 L 244 38 L 244 33 L 243 32 L 243 27 Z M 170 13 L 168 14 L 170 19 L 170 29 L 169 30 L 168 37 L 170 36 L 171 29 L 172 28 L 172 20 L 171 19 Z M 133 10 L 131 10 L 128 14 L 124 23 L 123 33 L 124 34 L 124 39 L 126 42 L 127 42 L 127 39 L 125 35 L 125 27 L 126 26 L 127 20 L 133 12 Z M 156 9 L 151 8 L 150 9 L 144 9 L 142 10 L 134 17 L 131 23 L 131 26 L 130 27 L 131 37 L 134 42 L 136 43 L 138 46 L 140 46 L 141 47 L 149 47 L 150 46 L 152 46 L 156 44 L 161 39 L 164 34 L 164 32 L 165 31 L 165 19 L 161 12 Z M 157 12 L 161 16 L 164 24 L 163 31 L 160 37 L 155 42 L 151 44 L 149 44 L 148 45 L 143 45 L 142 44 L 140 44 L 133 37 L 133 35 L 132 34 L 132 25 L 134 20 L 141 13 L 145 11 L 150 10 L 151 11 Z M 147 1 L 147 3 L 153 3 L 159 6 L 161 6 L 161 3 L 159 2 Z" fill="#1aabdb"/>
    </g>
    <g id="layer_3_1265a0">
      <path d="M 460 328 L 461 330 L 473 336 L 475 338 L 485 343 L 487 345 L 490 343 L 485 341 L 483 339 L 478 337 L 469 331 L 461 327 Z M 126 285 L 108 285 L 107 284 L 108 283 L 106 285 L 103 286 L 101 289 L 101 337 L 108 334 L 110 332 L 126 323 Z M 370 274 L 370 277 L 371 278 L 376 280 L 378 282 L 391 289 L 391 287 L 389 285 L 386 284 L 384 282 L 381 281 L 379 279 Z M 78 249 L 77 253 L 115 274 L 118 277 L 117 278 L 118 277 L 122 278 L 128 283 L 187 317 L 192 315 L 150 291 L 133 284 L 124 276 Z M 203 215 L 202 231 L 199 233 L 192 227 L 190 228 L 192 235 L 194 234 L 194 236 L 202 240 L 200 247 L 192 243 L 192 241 L 190 242 L 190 248 L 194 248 L 199 253 L 204 253 L 202 255 L 202 270 L 188 270 L 187 263 L 188 276 L 200 276 L 202 281 L 209 282 L 209 289 L 256 288 L 258 284 L 258 241 L 256 246 L 214 246 L 214 248 L 212 247 L 212 249 L 204 253 L 203 245 L 213 239 L 215 240 L 216 232 L 210 234 L 210 236 L 208 235 L 205 239 L 202 237 L 201 232 L 216 223 L 216 208 Z M 369 184 L 363 187 L 361 189 L 356 191 L 354 193 L 349 195 L 340 201 L 340 237 L 343 237 L 343 234 L 346 231 L 348 231 L 349 232 L 349 236 L 347 237 L 351 237 L 352 236 L 354 236 L 355 237 L 357 234 L 362 232 L 364 230 L 366 231 L 366 235 L 364 237 L 369 237 Z M 354 228 L 355 229 L 355 232 L 352 235 L 350 235 L 349 234 L 349 230 L 352 228 Z M 359 224 L 360 225 L 360 230 L 356 232 L 355 231 L 355 227 Z M 348 222 L 349 223 L 349 226 L 346 229 L 344 229 L 343 228 L 343 225 L 345 223 Z M 365 221 L 366 222 L 366 226 L 362 229 L 361 228 L 361 224 Z M 354 219 L 355 220 L 355 223 L 353 225 L 350 226 L 349 225 L 349 222 L 352 219 Z M 359 216 L 360 217 L 360 220 L 356 223 L 355 222 L 355 218 Z M 365 213 L 366 214 L 366 217 L 362 219 L 361 218 L 361 215 L 363 213 Z M 347 213 L 348 214 L 348 218 L 345 220 L 344 219 L 344 215 Z M 353 210 L 354 211 L 354 214 L 351 217 L 350 216 L 350 212 Z M 359 207 L 360 208 L 360 211 L 356 214 L 355 213 L 355 210 Z M 347 205 L 348 206 L 348 209 L 345 211 L 344 210 L 344 207 Z M 364 204 L 365 205 L 365 208 L 362 210 L 361 209 L 361 206 Z M 353 202 L 354 203 L 354 206 L 351 208 L 350 207 L 350 204 Z M 359 199 L 360 200 L 360 202 L 357 205 L 356 204 L 356 201 Z M 364 196 L 365 197 L 365 200 L 362 202 L 361 201 L 361 198 Z M 175 170 L 153 183 L 153 251 L 154 254 L 154 250 L 159 248 L 160 252 L 157 254 L 161 254 L 173 247 L 174 248 L 174 252 L 166 257 L 166 259 L 173 255 L 174 260 L 167 264 L 166 266 L 167 275 L 176 280 L 176 262 L 186 261 L 186 237 L 176 236 Z M 174 241 L 174 244 L 172 246 L 169 247 L 162 252 L 160 251 L 160 247 L 161 246 L 164 245 L 168 242 L 169 243 L 169 242 L 172 240 Z M 159 240 L 160 241 L 160 244 L 157 247 L 155 247 L 154 246 L 154 243 L 156 241 Z M 158 233 L 160 235 L 160 237 L 158 239 L 155 240 L 154 239 L 154 236 Z M 173 232 L 174 233 L 174 237 L 166 242 L 165 241 L 165 242 L 161 245 L 160 244 L 160 240 L 162 238 L 165 237 L 167 235 L 169 235 Z M 164 230 L 165 231 L 165 234 L 161 237 L 160 236 L 160 233 Z M 168 228 L 169 229 L 169 232 L 166 234 L 165 233 L 165 230 Z M 173 225 L 174 226 L 174 229 L 170 232 L 169 231 L 169 228 Z M 158 219 L 159 220 L 159 223 L 156 226 L 155 225 L 155 221 Z M 163 217 L 165 220 L 161 223 L 160 222 L 160 219 Z M 168 214 L 169 215 L 169 218 L 166 220 L 165 219 L 165 216 Z M 158 212 L 159 213 L 159 216 L 156 218 L 155 217 L 155 214 Z M 173 211 L 174 212 L 174 215 L 172 217 L 170 217 L 169 216 L 170 215 L 170 213 Z M 163 209 L 164 210 L 164 213 L 161 215 L 160 214 L 160 211 Z M 168 207 L 169 208 L 169 210 L 166 213 L 165 212 L 165 209 Z M 158 205 L 159 206 L 159 208 L 156 210 L 155 209 L 155 207 Z M 173 204 L 174 205 L 174 208 L 171 210 L 170 209 L 170 206 Z M 163 202 L 164 203 L 164 205 L 161 208 L 160 207 L 160 204 Z M 168 199 L 169 200 L 169 203 L 166 205 L 165 204 L 165 201 Z M 158 197 L 159 198 L 159 200 L 156 203 L 155 202 L 155 199 Z M 173 196 L 174 197 L 174 200 L 171 202 L 170 201 L 170 198 Z M 163 194 L 164 195 L 164 198 L 161 200 L 160 199 L 160 196 Z M 168 192 L 169 193 L 169 195 L 166 197 L 165 196 L 165 194 Z M 158 190 L 159 191 L 159 193 L 156 195 L 155 194 L 155 192 Z M 173 189 L 174 190 L 174 192 L 171 194 L 170 193 L 170 191 Z M 163 187 L 164 188 L 164 190 L 161 193 L 160 192 L 160 189 Z M 168 185 L 169 186 L 169 188 L 166 190 L 165 189 L 165 187 Z M 173 182 L 174 183 L 174 185 L 171 187 L 170 186 L 170 184 Z M 317 157 L 316 158 L 316 162 L 317 163 L 317 166 L 318 166 L 319 164 L 318 163 Z M 130 158 L 127 156 L 121 159 L 119 161 L 122 163 L 124 161 Z M 160 150 L 158 153 L 150 155 L 150 157 L 153 155 L 155 156 L 160 152 Z M 140 148 L 138 150 L 139 152 L 142 151 Z M 330 143 L 326 147 L 324 151 L 324 153 L 323 154 L 323 163 L 325 167 L 328 170 L 331 171 L 331 161 L 332 160 L 331 160 L 329 157 L 327 156 L 327 154 L 324 152 L 328 148 L 331 147 L 331 143 Z M 343 140 L 343 146 L 349 149 L 349 151 L 347 153 L 345 151 L 343 151 L 347 153 L 345 156 L 343 156 L 351 156 L 351 149 L 350 148 L 350 146 L 346 141 Z M 150 127 L 150 132 L 151 131 L 153 131 L 157 133 L 160 136 L 164 134 L 160 128 L 158 127 L 155 129 L 154 127 Z M 331 119 L 259 160 L 259 224 L 268 221 L 268 217 L 278 210 L 280 211 L 280 218 L 284 217 L 284 208 L 287 206 L 287 183 L 308 171 L 309 213 L 310 184 L 327 174 L 324 171 L 322 176 L 315 180 L 313 179 L 311 152 L 315 142 L 320 136 L 324 139 L 322 142 L 331 136 Z M 278 188 L 280 190 L 280 198 L 277 201 L 270 205 L 269 204 L 269 193 Z M 278 166 L 280 168 L 280 177 L 275 181 L 270 183 L 269 182 L 269 172 Z M 294 158 L 295 159 L 295 169 L 293 171 L 285 175 L 284 174 L 284 164 L 286 162 Z M 308 150 L 309 151 L 309 161 L 306 164 L 300 167 L 299 166 L 299 159 L 298 158 L 298 156 Z M 150 119 L 150 121 L 155 121 L 156 122 L 158 121 L 159 123 L 160 123 L 160 120 L 152 120 Z M 370 103 L 366 106 L 356 111 L 354 113 L 342 119 L 342 128 L 348 129 L 352 132 L 352 134 L 351 135 L 346 133 L 343 133 L 343 135 L 349 138 L 354 143 L 356 147 L 357 152 L 358 152 L 358 151 L 357 150 L 357 145 L 355 141 L 356 140 L 359 140 L 362 143 L 363 148 L 366 147 L 370 144 Z M 318 96 L 318 102 L 320 104 L 323 105 L 340 116 L 344 115 L 344 108 L 345 107 L 341 109 Z M 125 86 L 125 131 L 126 131 L 129 129 L 134 123 L 138 124 L 140 122 L 143 121 L 143 98 L 144 97 Z M 370 84 L 363 87 L 361 89 L 356 91 L 354 93 L 349 95 L 343 99 L 342 98 L 342 94 L 342 106 L 344 104 L 351 101 L 353 99 L 370 90 Z M 370 70 L 354 79 L 352 81 L 342 86 L 342 90 L 370 74 Z M 179 66 L 150 83 L 150 114 L 156 114 L 158 113 L 159 115 L 160 115 L 160 112 L 164 110 L 165 111 L 165 114 L 162 116 L 165 118 L 165 115 L 166 114 L 165 113 L 165 110 L 166 109 L 166 107 L 169 104 L 179 99 Z M 157 104 L 158 105 L 158 109 L 155 111 L 154 110 L 154 107 Z M 164 101 L 165 102 L 165 105 L 161 107 L 160 106 L 160 103 Z M 169 98 L 170 99 L 170 102 L 167 104 L 166 103 L 166 100 Z M 157 95 L 158 96 L 158 99 L 155 102 L 154 101 L 154 98 Z M 175 94 L 176 95 L 176 98 L 173 101 L 172 100 L 172 97 Z M 164 92 L 165 93 L 165 96 L 161 98 L 160 97 L 160 94 Z M 169 89 L 170 90 L 170 93 L 167 95 L 166 94 L 166 91 Z M 157 87 L 158 88 L 158 91 L 155 93 L 154 92 L 154 89 Z M 175 86 L 176 87 L 176 89 L 173 91 L 172 90 L 172 88 Z M 164 83 L 165 84 L 165 87 L 161 90 L 160 89 L 160 86 Z M 169 81 L 170 82 L 170 84 L 167 86 L 166 85 L 166 83 Z M 175 77 L 176 78 L 176 81 L 173 83 L 172 82 L 172 79 Z M 309 56 L 306 60 L 295 70 L 295 86 L 294 87 L 294 89 L 291 92 L 288 92 L 287 91 L 287 97 L 294 102 L 299 104 L 301 106 L 310 111 L 310 57 Z M 130 19 L 128 23 L 128 35 L 131 41 L 136 45 L 131 40 L 129 35 L 129 25 L 131 21 L 131 19 Z M 126 16 L 124 16 L 122 21 L 122 24 L 121 25 L 121 35 L 122 36 L 122 39 L 124 42 L 122 37 L 122 25 L 123 24 L 124 19 Z M 167 14 L 166 14 L 168 20 L 168 26 L 167 27 L 167 31 L 165 34 L 166 36 L 168 31 L 168 27 L 169 26 L 169 22 L 168 21 Z M 156 13 L 159 16 L 161 20 L 161 29 L 159 32 L 160 34 L 162 29 L 162 21 L 160 17 Z" fill="#1265a0"/>
    </g>
    <g id="layer_4_33c4f2">
      <path d="M 347 293 L 345 294 L 344 298 L 347 297 Z M 359 287 L 356 288 L 356 291 L 358 291 L 359 290 Z M 365 283 L 362 285 L 362 288 L 365 286 Z M 359 278 L 356 279 L 356 282 L 359 281 Z M 77 274 L 77 286 L 98 286 L 95 285 L 90 281 L 85 279 L 80 275 Z M 77 254 L 77 265 L 83 269 L 88 271 L 90 273 L 95 275 L 97 277 L 100 278 L 100 268 L 98 266 L 95 265 L 93 263 L 88 261 L 86 259 L 81 257 Z M 188 234 L 188 238 L 198 243 L 200 245 L 200 241 Z M 76 210 L 76 219 L 77 220 L 77 223 L 80 224 L 82 226 L 100 236 L 100 224 Z M 188 209 L 188 224 L 200 230 L 200 216 L 193 211 Z M 76 199 L 76 201 L 78 203 L 83 205 L 85 207 L 100 215 L 100 213 Z M 312 185 L 311 284 L 316 284 L 313 282 L 314 277 L 319 280 L 319 284 L 320 281 L 328 285 L 334 284 L 331 282 L 332 277 L 337 280 L 337 284 L 338 284 L 339 260 L 329 253 L 331 252 L 331 248 L 334 247 L 337 249 L 336 254 L 338 254 L 338 200 Z M 326 274 L 328 274 L 331 276 L 331 281 L 330 282 L 325 278 L 325 275 Z M 320 270 L 325 273 L 325 277 L 324 278 L 321 277 L 319 275 L 319 271 Z M 331 268 L 332 267 L 334 267 L 337 270 L 337 273 L 336 274 L 334 274 L 331 271 Z M 314 267 L 317 268 L 319 270 L 319 274 L 318 275 L 313 272 L 313 268 Z M 326 263 L 329 264 L 331 266 L 331 270 L 330 271 L 327 270 L 325 268 L 325 264 Z M 320 260 L 322 260 L 325 263 L 325 267 L 324 268 L 321 267 L 319 265 L 319 261 Z M 314 257 L 316 257 L 319 260 L 319 264 L 318 265 L 313 261 L 313 258 Z M 332 256 L 337 259 L 337 263 L 336 264 L 333 263 L 331 261 L 331 257 Z M 326 253 L 329 254 L 331 256 L 331 260 L 330 261 L 325 258 L 325 254 Z M 320 250 L 322 250 L 325 253 L 325 257 L 324 258 L 319 255 L 319 251 Z M 314 246 L 319 249 L 319 253 L 318 254 L 315 253 L 313 251 L 313 247 Z M 327 243 L 331 246 L 331 250 L 330 251 L 327 250 L 325 248 L 325 245 Z M 320 240 L 323 241 L 325 243 L 325 247 L 324 248 L 321 247 L 319 245 L 319 241 Z M 314 237 L 316 237 L 319 240 L 319 244 L 318 245 L 313 242 L 313 238 Z M 332 236 L 337 239 L 337 243 L 336 244 L 333 243 L 331 241 L 331 237 Z M 326 233 L 329 234 L 331 236 L 331 240 L 330 241 L 325 238 L 325 234 Z M 320 230 L 322 230 L 325 233 L 325 237 L 324 238 L 319 235 L 319 231 Z M 332 226 L 335 227 L 337 229 L 337 233 L 336 234 L 331 231 L 331 227 Z M 314 226 L 317 227 L 319 229 L 319 234 L 318 235 L 313 232 L 313 227 Z M 326 223 L 328 223 L 331 225 L 331 230 L 330 231 L 325 227 L 325 224 Z M 320 219 L 325 222 L 325 226 L 324 227 L 321 226 L 319 224 L 319 220 Z M 331 217 L 332 216 L 336 217 L 337 218 L 337 222 L 336 223 L 332 222 L 331 221 Z M 314 216 L 317 217 L 319 219 L 319 223 L 318 224 L 315 223 L 313 221 L 313 217 Z M 326 212 L 329 213 L 331 215 L 331 219 L 330 220 L 328 220 L 325 217 L 325 213 Z M 320 209 L 323 210 L 325 212 L 325 216 L 324 217 L 321 216 L 319 214 L 319 210 Z M 314 206 L 316 206 L 319 209 L 319 213 L 318 214 L 313 211 L 313 207 Z M 332 205 L 337 208 L 337 212 L 336 213 L 333 212 L 331 210 L 331 206 Z M 326 202 L 329 203 L 331 205 L 331 209 L 330 210 L 325 207 L 325 203 Z M 320 199 L 322 199 L 325 202 L 325 206 L 324 207 L 319 204 L 319 200 Z M 314 195 L 317 196 L 319 198 L 319 203 L 318 204 L 313 201 L 313 196 Z M 278 168 L 270 173 L 270 181 L 272 181 L 278 177 Z M 319 167 L 318 167 L 318 171 L 317 172 L 314 171 L 314 175 L 315 174 L 320 174 L 322 173 L 322 171 Z M 169 165 L 165 164 L 155 170 L 144 170 L 141 168 L 142 165 L 151 165 L 160 161 L 154 163 L 145 162 L 131 170 L 136 173 L 135 174 L 129 172 L 121 165 L 121 179 L 130 180 L 130 237 L 134 237 L 132 236 L 133 231 L 137 234 L 136 237 L 138 234 L 145 238 L 152 237 L 152 183 L 141 176 L 164 175 L 175 169 Z M 142 229 L 144 228 L 147 231 L 149 231 L 152 234 L 152 236 L 151 237 L 149 237 L 147 235 L 145 235 L 142 232 Z M 138 225 L 142 228 L 142 231 L 141 232 L 137 230 L 137 226 Z M 133 222 L 137 226 L 137 228 L 136 229 L 134 229 L 132 227 L 132 223 Z M 142 221 L 144 220 L 147 223 L 149 223 L 152 226 L 152 228 L 151 229 L 149 229 L 147 227 L 145 227 L 142 224 Z M 138 217 L 142 220 L 142 223 L 141 224 L 139 224 L 137 222 L 137 218 Z M 133 214 L 137 218 L 137 220 L 136 221 L 134 221 L 132 219 L 132 215 Z M 142 212 L 143 211 L 145 212 L 147 215 L 148 214 L 152 217 L 152 219 L 150 221 L 146 218 L 143 217 L 142 216 Z M 137 210 L 139 209 L 142 212 L 142 214 L 141 215 L 139 215 L 137 213 Z M 133 206 L 137 209 L 137 212 L 136 213 L 132 211 L 132 207 Z M 142 204 L 144 203 L 146 204 L 147 206 L 148 205 L 152 209 L 152 211 L 151 212 L 149 212 L 147 210 L 144 209 L 142 207 Z M 138 200 L 142 203 L 142 205 L 140 207 L 137 205 L 137 201 Z M 133 197 L 137 200 L 137 203 L 136 204 L 132 202 L 132 198 Z M 142 195 L 144 194 L 146 195 L 147 197 L 149 197 L 152 200 L 152 202 L 150 204 L 147 201 L 143 200 L 142 199 Z M 138 191 L 142 195 L 142 197 L 141 198 L 139 198 L 137 196 L 137 192 Z M 132 190 L 134 189 L 137 192 L 137 194 L 136 195 L 134 195 L 132 193 Z M 142 186 L 143 185 L 145 187 L 150 189 L 152 191 L 152 194 L 150 195 L 146 192 L 144 192 L 142 190 Z M 138 183 L 142 186 L 142 188 L 140 190 L 137 187 L 137 184 Z M 133 180 L 137 182 L 137 186 L 136 187 L 132 185 L 132 181 Z M 294 159 L 292 161 L 286 164 L 286 173 L 292 170 L 294 168 Z M 308 152 L 300 156 L 300 165 L 308 161 Z M 341 140 L 336 140 L 335 141 L 333 141 L 332 142 L 332 146 L 334 146 L 335 145 L 341 145 Z M 167 108 L 167 114 L 178 119 L 186 127 L 191 138 L 191 150 L 189 154 L 189 162 L 187 164 L 185 162 L 179 168 L 180 169 L 197 169 L 192 165 L 192 156 L 194 154 L 204 161 L 204 169 L 208 169 L 209 162 L 218 167 L 219 169 L 256 169 L 256 167 L 258 166 L 258 160 Z M 316 105 L 316 108 L 332 117 L 332 135 L 334 135 L 335 134 L 341 134 L 341 133 L 337 133 L 333 130 L 335 127 L 341 127 L 341 120 L 335 116 L 330 114 L 328 112 L 323 110 Z M 316 85 L 316 91 L 341 105 L 341 99 L 323 89 L 321 87 Z M 316 72 L 316 75 L 332 84 L 341 90 L 341 87 L 339 85 L 334 83 L 332 81 Z M 121 67 L 121 125 L 123 123 L 123 85 L 124 84 L 145 96 L 145 112 L 148 111 L 148 83 Z M 208 51 L 209 81 L 215 77 L 220 75 L 222 73 L 227 71 L 234 66 L 231 65 L 229 63 L 226 62 L 224 60 L 219 58 L 217 56 Z M 276 37 L 275 38 L 276 39 L 276 42 L 277 43 L 277 46 L 278 47 L 279 52 L 282 52 L 283 51 L 288 50 L 288 45 L 289 44 L 282 41 Z" fill="#33c4f2"/>
    </g>
    <g id="layer_5_f6f9fb">
      <path d="M 327 214 L 327 217 L 330 219 L 330 216 Z M 195 207 L 201 211 L 208 207 L 203 204 L 200 204 L 198 206 Z M 209 190 L 209 200 L 214 202 L 216 204 L 218 204 L 218 195 Z M 179 173 L 179 183 L 187 188 L 187 178 L 181 175 Z M 337 161 L 335 163 L 335 165 L 336 166 L 339 166 L 340 163 Z M 343 158 L 340 156 L 338 156 L 333 158 L 333 159 L 335 159 L 336 158 L 341 158 L 342 159 Z M 330 156 L 331 157 L 334 154 L 336 154 L 337 153 L 341 153 L 344 155 L 345 155 L 345 154 L 342 152 L 336 152 Z M 348 150 L 341 147 L 338 147 L 337 148 L 334 148 L 328 152 L 328 154 L 329 154 L 331 151 L 335 149 L 344 149 L 347 151 Z M 147 133 L 145 137 L 143 136 L 142 137 L 142 139 L 143 140 L 143 141 L 141 142 L 141 145 L 143 146 L 142 147 L 142 149 L 148 153 L 150 153 L 151 152 L 154 153 L 155 152 L 155 150 L 156 149 L 159 149 L 160 147 L 159 146 L 159 145 L 161 144 L 161 141 L 159 140 L 160 138 L 159 136 L 154 133 L 151 133 L 150 134 Z M 146 146 L 147 145 L 151 148 L 150 149 L 148 149 Z M 150 138 L 151 137 L 154 137 L 156 139 L 155 140 L 153 140 Z M 183 102 L 185 105 L 258 147 L 262 147 L 312 117 L 236 72 Z M 208 113 L 218 106 L 224 103 L 227 103 L 231 106 L 236 108 L 238 110 L 243 112 L 245 114 L 250 116 L 255 120 L 253 122 L 243 127 L 241 129 L 236 130 L 230 126 L 225 124 L 223 122 L 218 120 L 216 118 L 213 117 Z M 241 83 L 242 82 L 244 82 L 246 84 L 244 85 Z M 213 91 L 233 79 L 236 80 L 239 79 L 242 81 L 241 83 L 246 86 L 245 85 L 248 84 L 250 86 L 249 88 L 248 87 L 249 88 L 251 86 L 255 89 L 253 90 L 259 94 L 261 94 L 277 104 L 281 103 L 283 105 L 281 106 L 284 105 L 287 107 L 286 109 L 288 107 L 291 110 L 289 111 L 288 110 L 291 112 L 290 111 L 293 110 L 295 112 L 294 114 L 293 113 L 296 115 L 278 126 L 274 127 L 218 95 Z M 165 65 L 150 57 L 134 66 L 150 75 L 157 70 L 162 68 L 165 66 Z M 330 33 L 330 37 L 348 47 L 349 46 L 349 42 L 348 40 L 340 33 L 338 32 L 336 32 L 335 33 Z M 152 18 L 148 18 L 145 21 L 145 24 L 146 26 L 148 27 L 142 30 L 140 33 L 140 37 L 141 36 L 147 36 L 148 35 L 158 34 L 158 30 L 156 28 L 151 26 L 153 24 L 153 19 Z" fill="#f6f9fb"/>
    </g>
    <g id="layer_6_1b2155">
      <path d="M 505 354 L 506 356 L 511 358 L 513 360 L 518 362 L 525 367 L 530 369 L 532 371 L 537 373 L 539 375 L 557 385 L 562 383 L 564 381 L 567 380 L 569 378 L 574 376 L 578 373 L 578 372 L 575 372 L 566 377 L 564 379 L 558 382 L 556 382 L 554 380 L 549 378 L 547 376 L 542 374 L 540 372 L 523 363 L 521 361 L 514 358 L 512 356 L 506 353 Z M 208 329 L 221 336 L 223 338 L 228 340 L 230 342 L 235 344 L 242 349 L 247 351 L 249 353 L 254 355 L 256 357 L 261 359 L 270 365 L 291 353 L 291 352 L 287 351 L 281 355 L 276 357 L 274 359 L 269 360 L 258 353 L 253 351 L 251 349 L 246 347 L 239 342 L 234 340 L 232 338 L 218 331 L 216 329 L 212 327 Z M 117 277 L 114 275 L 109 277 L 102 282 L 102 286 Z M 177 274 L 177 280 L 181 283 L 186 285 L 188 287 L 208 287 L 208 284 L 202 284 L 200 279 L 188 279 L 186 277 L 186 274 Z M 288 227 L 288 229 L 310 242 L 310 240 L 308 238 Z M 21 209 L 21 214 L 22 215 L 22 217 L 28 225 L 34 228 L 36 230 L 41 232 L 43 234 L 48 236 L 55 241 L 58 242 L 58 238 L 52 235 L 50 233 L 45 231 L 33 223 L 30 222 L 23 215 L 21 211 Z M 128 203 L 119 209 L 104 217 L 102 219 L 102 223 L 104 221 L 109 219 L 111 217 L 116 215 L 125 209 L 127 209 L 128 208 Z M 80 183 L 73 188 L 68 190 L 66 192 L 59 195 L 57 197 L 47 202 L 46 204 L 48 206 L 52 203 L 69 194 L 71 192 L 76 190 L 77 187 Z M 308 172 L 304 175 L 297 178 L 295 180 L 288 183 L 288 201 L 291 202 L 293 204 L 296 205 L 298 207 L 303 209 L 307 212 L 308 212 Z M 349 160 L 343 164 L 343 167 L 347 164 Z M 372 146 L 363 152 L 363 157 L 372 152 Z M 370 91 L 353 100 L 351 102 L 344 105 L 342 107 L 340 107 L 338 105 L 335 104 L 333 102 L 328 100 L 326 98 L 321 96 L 315 92 L 315 103 L 326 109 L 328 111 L 333 113 L 340 118 L 343 118 L 370 102 Z M 369 94 L 369 101 L 366 104 L 361 106 L 359 108 L 354 110 L 352 112 L 347 114 L 343 117 L 338 116 L 336 114 L 333 113 L 331 111 L 328 110 L 326 108 L 321 106 L 317 103 L 317 96 L 319 95 L 321 97 L 342 108 L 346 105 L 351 103 L 353 101 L 358 99 L 360 97 L 365 95 L 367 93 Z M 372 76 L 343 93 L 343 98 L 349 94 L 354 92 L 356 90 L 361 88 L 363 86 L 372 82 Z" fill="#1b2155"/>
    </g>
    <g id="layer_7_2488b5">
      <path d="M 445 320 L 458 328 L 460 327 L 459 325 L 447 319 Z M 391 286 L 392 287 L 392 290 L 405 297 L 405 295 L 403 293 L 400 292 Z M 126 282 L 122 279 L 123 280 L 122 281 L 115 281 L 114 280 L 108 284 L 126 284 Z M 126 277 L 133 283 L 141 287 L 145 288 Z M 201 264 L 200 265 L 188 265 L 188 269 L 200 269 L 201 270 Z M 153 252 L 153 258 L 154 260 L 154 258 L 158 255 L 160 256 L 160 260 L 164 260 L 165 259 L 165 257 L 161 260 L 160 259 L 160 255 L 154 255 L 153 254 Z M 208 244 L 204 247 L 204 251 L 208 249 Z M 340 240 L 346 240 L 347 239 L 349 240 L 350 238 L 345 238 L 344 239 L 343 238 L 340 238 Z M 358 240 L 369 240 L 369 238 L 364 238 L 363 237 Z M 208 230 L 203 233 L 203 237 L 206 236 L 208 234 Z M 177 222 L 177 236 L 186 236 L 186 222 Z M 287 219 L 285 220 L 284 218 L 281 218 L 280 219 L 280 222 L 271 228 L 268 227 L 268 222 L 259 225 L 258 224 L 258 220 L 257 227 L 256 228 L 233 228 L 234 229 L 234 239 L 233 240 L 226 237 L 222 234 L 222 228 L 217 228 L 217 245 L 256 245 L 256 240 L 257 239 L 258 240 L 258 232 L 260 230 L 268 229 L 269 228 L 275 228 L 282 225 L 287 225 Z M 361 163 L 370 163 L 370 157 L 365 157 L 363 158 Z M 354 102 L 345 108 L 345 114 L 354 109 Z M 283 85 L 283 95 L 286 97 L 286 90 L 284 88 Z M 283 74 L 283 78 L 284 79 L 284 82 L 286 87 L 286 83 L 285 82 L 286 80 L 283 76 Z M 159 46 L 157 45 L 150 50 L 146 50 L 145 51 L 140 51 L 138 50 L 138 51 L 150 51 L 153 49 L 155 49 Z M 160 35 L 159 34 L 152 41 L 148 43 L 143 44 L 148 44 L 155 41 Z M 132 9 L 129 9 L 125 15 L 127 15 L 130 10 Z M 155 8 L 153 8 L 152 7 L 144 7 L 143 8 L 141 8 L 137 10 L 130 18 L 131 18 L 132 20 L 133 17 L 139 11 L 144 8 L 150 8 L 151 7 Z" fill="#2488b5"/>
    </g>
    <g id="layer_8_9ed0e9">
      <path d="M 164 162 L 162 164 L 156 167 L 151 167 L 150 168 L 145 167 L 145 168 L 147 169 L 156 168 L 162 165 Z M 179 148 L 179 157 L 183 160 L 185 160 L 187 157 L 187 152 Z M 128 131 L 122 134 L 120 136 L 115 138 L 115 140 L 114 141 L 114 147 L 112 149 L 115 151 L 115 153 L 118 159 L 126 155 L 126 153 L 125 152 L 125 138 Z M 112 149 L 114 147 L 116 147 L 117 148 L 115 150 L 113 150 Z M 174 129 L 173 129 L 173 131 L 175 135 L 175 145 L 174 146 L 173 151 L 175 148 L 175 144 L 176 143 L 176 135 L 175 134 Z M 158 124 L 151 124 L 146 126 L 141 130 L 137 136 L 136 142 L 135 143 L 135 148 L 139 157 L 145 161 L 148 161 L 149 162 L 155 161 L 162 157 L 164 154 L 156 160 L 148 161 L 143 159 L 137 153 L 136 149 L 142 146 L 140 145 L 140 142 L 142 141 L 141 137 L 143 135 L 145 136 L 143 135 L 143 129 L 150 125 L 158 125 L 163 128 L 166 131 L 168 135 L 169 145 L 169 135 L 166 129 Z M 143 122 L 141 124 L 135 127 L 129 138 L 128 149 L 129 150 L 130 157 L 131 157 L 130 153 L 132 151 L 132 149 L 131 148 L 131 141 L 132 140 L 132 137 L 135 131 L 143 124 Z M 152 117 L 152 118 L 160 118 L 165 120 L 165 119 L 161 117 Z M 329 41 L 332 47 L 334 48 L 335 47 L 331 41 Z M 346 28 L 349 33 L 352 35 L 350 30 Z M 235 11 L 235 71 L 234 72 L 236 71 L 302 110 L 313 115 L 313 56 L 310 53 L 241 13 Z M 238 14 L 311 56 L 311 111 L 310 112 L 303 109 L 237 70 L 237 15 Z" fill="#9ed0e9"/>
    </g>
    <g id="layer_9_5eb3d3">
      <path d="M 350 175 L 348 177 L 341 180 L 338 180 L 337 181 L 333 181 L 331 180 L 331 182 L 339 182 L 340 181 L 343 181 L 350 177 Z M 142 152 L 140 155 L 142 157 L 145 158 L 144 157 L 145 156 L 143 154 L 144 153 L 146 153 Z M 360 142 L 359 142 L 359 145 L 360 146 L 361 154 L 360 155 L 360 160 L 358 165 L 360 164 L 360 162 L 361 161 L 361 152 L 362 151 L 362 148 L 361 147 Z M 323 139 L 322 139 L 318 144 L 314 153 L 314 165 L 315 166 L 316 171 L 317 171 L 317 167 L 315 164 L 315 155 L 316 154 L 317 148 Z M 345 137 L 336 137 L 335 138 L 333 138 L 324 146 L 322 150 L 322 152 L 321 153 L 321 164 L 323 168 L 329 174 L 331 174 L 332 175 L 339 175 L 340 174 L 342 174 L 346 172 L 353 164 L 355 154 L 356 153 L 357 154 L 355 152 L 355 148 L 352 142 L 349 139 Z M 345 139 L 347 140 L 353 147 L 353 149 L 354 150 L 354 157 L 353 158 L 353 161 L 347 169 L 340 173 L 332 173 L 331 172 L 335 169 L 338 168 L 335 167 L 333 165 L 333 163 L 332 165 L 332 171 L 331 172 L 329 172 L 324 167 L 322 163 L 322 153 L 323 152 L 323 150 L 332 140 L 334 140 L 338 138 Z M 336 128 L 339 128 L 340 129 L 339 130 L 337 130 L 337 132 L 338 131 L 343 131 L 351 134 L 351 132 L 350 131 L 343 130 L 341 128 Z M 172 128 L 170 129 L 172 132 L 172 136 L 173 137 L 172 145 L 170 149 L 171 151 L 173 147 L 173 143 L 174 142 L 174 136 L 173 135 Z M 160 127 L 164 131 L 166 136 L 166 143 L 165 144 L 165 146 L 163 150 L 156 157 L 152 159 L 148 159 L 153 159 L 158 157 L 162 154 L 166 148 L 166 146 L 167 145 L 167 136 L 165 132 Z M 144 126 L 142 126 L 138 129 L 133 138 L 133 150 L 136 155 L 134 158 L 137 158 L 141 160 L 136 155 L 134 151 L 134 140 L 137 133 Z M 134 124 L 132 128 L 129 130 L 130 132 L 128 133 L 127 135 L 128 139 L 127 140 L 126 139 L 127 141 L 127 149 L 126 151 L 127 150 L 127 142 L 128 141 L 128 138 L 133 128 L 137 125 Z M 358 40 L 357 41 L 358 42 L 359 47 L 360 47 L 360 43 L 359 42 L 359 40 Z M 322 30 L 322 36 L 323 38 L 324 38 L 323 37 L 324 36 L 323 34 L 323 30 Z M 339 21 L 342 25 L 343 23 Z M 340 16 L 340 17 L 347 24 L 343 20 L 345 18 L 342 16 Z" fill="#5eb3d3"/>
    </g>
    <g id="layer_10_244a6e">
      <path d="M 489 345 L 489 346 L 492 347 L 499 352 L 503 354 L 505 353 L 505 352 L 493 346 L 491 344 Z M 189 318 L 206 328 L 208 328 L 211 326 L 206 324 L 204 322 L 199 320 L 193 316 Z M 177 262 L 177 273 L 186 273 L 188 278 L 200 278 L 201 280 L 200 277 L 188 277 L 187 276 L 187 272 L 186 271 L 186 262 Z M 59 239 L 59 243 L 74 251 L 76 253 L 77 252 L 77 249 Z M 120 163 L 118 161 L 116 163 L 111 165 L 109 167 L 104 169 L 102 171 L 83 181 L 77 189 L 88 183 L 90 181 L 95 179 L 97 177 L 102 175 L 104 173 L 109 171 L 116 166 L 119 165 Z M 183 105 L 258 149 L 262 149 L 312 120 L 312 119 L 270 144 L 259 149 Z M 236 9 L 303 47 L 314 55 L 314 115 L 315 53 L 243 11 Z" fill="#244a6e"/>
    </g>
    <g id="layer_11_4b8ca5">
      <path d="M 349 175 L 347 174 L 345 176 L 338 179 L 328 179 L 328 180 L 329 181 L 330 181 L 331 179 L 333 180 L 337 180 L 338 179 L 344 178 Z M 352 160 L 351 160 L 347 166 L 342 170 L 338 172 L 332 172 L 340 172 L 348 167 L 351 163 Z M 142 161 L 137 159 L 134 159 L 133 157 L 132 159 L 130 159 L 122 164 L 127 169 L 128 168 L 130 169 L 142 162 Z M 322 138 L 319 138 L 314 146 L 314 148 L 315 149 L 317 144 Z M 342 136 L 333 136 L 327 139 L 322 144 L 319 150 L 320 150 L 321 152 L 321 150 L 323 146 L 333 137 L 335 137 L 336 136 Z M 327 14 L 322 17 L 319 23 L 319 33 L 321 40 L 323 40 L 325 38 L 329 47 L 334 53 L 332 56 L 333 58 L 341 63 L 349 64 L 350 63 L 349 64 L 348 61 L 343 60 L 341 61 L 334 57 L 333 55 L 335 53 L 341 57 L 348 57 L 352 53 L 354 53 L 355 50 L 356 54 L 354 58 L 357 59 L 359 57 L 360 48 L 358 47 L 355 39 L 356 44 L 354 46 L 349 34 L 344 27 L 338 22 L 338 20 L 339 19 L 349 28 L 352 27 L 350 28 L 338 16 L 337 20 L 331 20 L 327 22 L 324 28 L 323 27 L 324 21 L 329 16 L 327 17 L 326 16 Z M 322 29 L 324 30 L 324 34 L 325 35 L 325 38 L 324 39 L 323 39 L 321 36 L 321 30 Z M 332 23 L 339 25 L 348 35 L 351 43 L 351 50 L 348 54 L 344 54 L 343 53 L 339 54 L 330 46 L 326 37 L 326 33 L 328 32 L 329 26 Z" fill="#4b8ca5"/>
    </g>
    <g id="layer_12_98a8bb">
      <path d="M 215 91 L 224 97 L 227 97 L 229 100 L 241 106 L 255 115 L 261 118 L 263 118 L 264 120 L 267 121 L 269 123 L 272 123 L 274 126 L 277 125 L 278 123 L 280 123 L 294 115 L 288 111 L 290 110 L 294 112 L 291 111 L 289 109 L 285 110 L 281 107 L 279 108 L 278 107 L 279 106 L 276 105 L 274 103 L 271 103 L 269 100 L 267 100 L 265 98 L 262 98 L 261 97 L 262 96 L 256 93 L 254 93 L 253 91 L 250 90 L 248 88 L 245 88 L 243 85 L 245 84 L 244 83 L 240 84 L 237 83 L 236 81 L 234 80 Z M 267 121 L 269 118 L 272 120 L 269 122 Z M 270 118 L 272 116 L 274 116 L 275 117 L 272 119 Z M 263 118 L 264 117 L 263 116 L 264 115 L 267 115 L 268 116 L 265 119 Z M 254 111 L 255 110 L 258 110 L 259 112 L 258 113 L 256 113 Z M 272 108 L 273 109 L 272 111 L 270 112 L 269 111 L 270 109 Z M 246 106 L 247 105 L 250 105 L 251 106 L 249 108 Z M 250 96 L 251 97 L 250 99 L 248 100 L 247 99 L 248 97 Z M 223 93 L 225 92 L 226 93 L 228 93 L 229 95 L 227 96 Z M 230 87 L 231 86 L 233 86 L 234 88 L 232 90 Z" fill="#98a8bb"/>
    </g>
    <g id="layer_13_2f3184">
      <path d="M 210 113 L 237 129 L 253 120 L 226 104 L 221 106 L 219 108 L 214 110 Z" fill="#2f3184"/>
    </g>
    <g id="layer_14_abb6cc">
      <path d="M 150 17 L 145 16 L 142 19 L 142 23 L 144 25 L 138 29 L 137 31 L 137 35 L 138 36 L 139 36 L 140 31 L 143 28 L 147 27 L 146 27 L 144 24 L 145 19 L 147 17 Z" fill="#abb6cc"/>
    </g>
    <g id="layer_15_497696">
      <path d="M 319 151 L 318 159 L 321 167 L 319 162 L 319 154 L 320 153 L 320 151 Z M 357 143 L 358 145 L 358 150 L 359 151 L 358 153 L 358 158 L 357 159 L 357 161 L 358 161 L 358 158 L 359 157 L 359 148 Z" fill="#497696"/>
    </g>
    <g id="layer_16_007cc3">
      <path d="M 164 93 L 161 94 L 161 96 L 162 97 L 164 96 Z M 164 84 L 161 86 L 161 89 L 164 87 Z" fill="#007cc3"/>
    </g>
    <g id="layer_17_000000">
      <path d="M 120 127 L 118 129 L 115 135 L 115 137 L 120 134 Z" fill="#000000"/>
    </g>
  </g>
</svg>